M48
;DRILL file {KiCad (5.0.2)-1} date 2/2/2019 6:03:18 PM
;FORMAT={-:-/ absolute / inch / decimal}
FMAT,2
INCH,TZ
T1C0.0315
T2C0.0394
%
G90
G05
T1
X3.25Y-2.2
X3.25Y-2.8
X3.35Y-2.2
X3.35Y-2.8
X3.45Y-2.2
X3.45Y-2.8
X3.55Y-2.2
X3.55Y-2.8
X3.65Y-2.2
X3.65Y-2.8
X3.75Y-2.2
X3.75Y-2.8
X3.85Y-2.2
X3.85Y-2.8
X3.95Y-2.2
X3.95Y-2.8
X4.05Y-2.2
X4.05Y-2.8
X4.15Y-2.2
X4.15Y-2.8
X4.25Y-2.2
X4.25Y-2.8
X4.35Y-2.2
X4.35Y-2.8
X4.45Y-2.2
X4.45Y-2.8
X4.55Y-2.2
X4.55Y-2.8
X4.65Y-2.2
X4.65Y-2.8
T2
X4.25Y-2.93
X4.35Y-2.93
X4.45Y-2.93
X4.55Y-2.93
X4.65Y-2.93
X4.75Y-2.93
X3.5Y-2.45
X3.5Y-2.55
X3.6Y-2.45
X3.6Y-2.55
X3.7Y-2.45
X3.7Y-2.55
X3.8Y-2.45
X3.8Y-2.55
X3.9Y-2.45
X3.9Y-2.55
X4.Y-2.45
X4.Y-2.55
X4.1Y-2.45
X4.1Y-2.55
X4.2Y-2.45
X4.2Y-2.55
X4.3Y-2.45
X4.3Y-2.55
X4.4Y-2.45
X4.4Y-2.55
X3.65Y-2.07
X3.75Y-2.07
X3.85Y-2.07
X3.95Y-2.07
X4.35Y-2.07
X4.45Y-2.07
X4.55Y-2.07
T0
M30
