G04 #@! TF.GenerationSoftware,KiCad,Pcbnew,(5.0.2)-1*
G04 #@! TF.CreationDate,2019-02-02T18:03:16-06:00*
G04 #@! TF.ProjectId,CE-Header-Arduino-Nano,43452d48-6561-4646-9572-2d4172647569,1.0*
G04 #@! TF.SameCoordinates,Original*
G04 #@! TF.FileFunction,Legend,Top*
G04 #@! TF.FilePolarity,Positive*
%FSLAX46Y46*%
G04 Gerber Fmt 4.6, Leading zero omitted, Abs format (unit mm)*
G04 Created by KiCad (PCBNEW (5.0.2)-1) date 2/2/2019 6:03:16 PM*
%MOMM*%
%LPD*%
G01*
G04 APERTURE LIST*
%ADD10C,0.300000*%
%ADD11C,0.120000*%
G04 APERTURE END LIST*
D10*
X87992857Y-58606571D02*
X88278571Y-59606571D01*
X88564285Y-58892285D01*
X88850000Y-59606571D01*
X89135714Y-58606571D01*
X89564285Y-58606571D02*
X89850000Y-59606571D01*
X90135714Y-58892285D01*
X90421428Y-59606571D01*
X90707142Y-58606571D01*
X91135714Y-58606571D02*
X91421428Y-59606571D01*
X91707142Y-58892285D01*
X91992857Y-59606571D01*
X92278571Y-58606571D01*
X92850000Y-59463714D02*
X92921428Y-59535142D01*
X92850000Y-59606571D01*
X92778571Y-59535142D01*
X92850000Y-59463714D01*
X92850000Y-59606571D01*
X93564285Y-59606571D02*
X93564285Y-58106571D01*
X94064285Y-59178000D01*
X94564285Y-58106571D01*
X94564285Y-59606571D01*
X95921428Y-59606571D02*
X95921428Y-58820857D01*
X95850000Y-58678000D01*
X95707142Y-58606571D01*
X95421428Y-58606571D01*
X95278571Y-58678000D01*
X95921428Y-59535142D02*
X95778571Y-59606571D01*
X95421428Y-59606571D01*
X95278571Y-59535142D01*
X95207142Y-59392285D01*
X95207142Y-59249428D01*
X95278571Y-59106571D01*
X95421428Y-59035142D01*
X95778571Y-59035142D01*
X95921428Y-58963714D01*
X96635714Y-59606571D02*
X96635714Y-58606571D01*
X96635714Y-58892285D02*
X96707142Y-58749428D01*
X96778571Y-58678000D01*
X96921428Y-58606571D01*
X97064285Y-58606571D01*
X97564285Y-59606571D02*
X97564285Y-58106571D01*
X97707142Y-59035142D02*
X98135714Y-59606571D01*
X98135714Y-58606571D02*
X97564285Y-59178000D01*
X99278571Y-58820857D02*
X98778571Y-58820857D01*
X98778571Y-59606571D02*
X98778571Y-58106571D01*
X99492857Y-58106571D01*
X100064285Y-59606571D02*
X100064285Y-58606571D01*
X100064285Y-58892285D02*
X100135714Y-58749428D01*
X100207142Y-58678000D01*
X100350000Y-58606571D01*
X100492857Y-58606571D01*
X101207142Y-59606571D02*
X101064285Y-59535142D01*
X100992857Y-59463714D01*
X100921428Y-59320857D01*
X100921428Y-58892285D01*
X100992857Y-58749428D01*
X101064285Y-58678000D01*
X101207142Y-58606571D01*
X101421428Y-58606571D01*
X101564285Y-58678000D01*
X101635714Y-58749428D01*
X101707142Y-58892285D01*
X101707142Y-59320857D01*
X101635714Y-59463714D01*
X101564285Y-59535142D01*
X101421428Y-59606571D01*
X101207142Y-59606571D01*
X102350000Y-59606571D02*
X102350000Y-58606571D01*
X102350000Y-58749428D02*
X102421428Y-58678000D01*
X102564285Y-58606571D01*
X102778571Y-58606571D01*
X102921428Y-58678000D01*
X102992857Y-58820857D01*
X102992857Y-59606571D01*
X102992857Y-58820857D02*
X103064285Y-58678000D01*
X103207142Y-58606571D01*
X103421428Y-58606571D01*
X103564285Y-58678000D01*
X103635714Y-58820857D01*
X103635714Y-59606571D01*
X104278571Y-59535142D02*
X104492857Y-59606571D01*
X104850000Y-59606571D01*
X104992857Y-59535142D01*
X105064285Y-59463714D01*
X105135714Y-59320857D01*
X105135714Y-59178000D01*
X105064285Y-59035142D01*
X104992857Y-58963714D01*
X104850000Y-58892285D01*
X104564285Y-58820857D01*
X104421428Y-58749428D01*
X104350000Y-58678000D01*
X104278571Y-58535142D01*
X104278571Y-58392285D01*
X104350000Y-58249428D01*
X104421428Y-58178000D01*
X104564285Y-58106571D01*
X104921428Y-58106571D01*
X105135714Y-58178000D01*
X106421428Y-59606571D02*
X106421428Y-58820857D01*
X106350000Y-58678000D01*
X106207142Y-58606571D01*
X105921428Y-58606571D01*
X105778571Y-58678000D01*
X106421428Y-59535142D02*
X106278571Y-59606571D01*
X105921428Y-59606571D01*
X105778571Y-59535142D01*
X105707142Y-59392285D01*
X105707142Y-59249428D01*
X105778571Y-59106571D01*
X105921428Y-59035142D01*
X106278571Y-59035142D01*
X106421428Y-58963714D01*
X107350000Y-59606571D02*
X107207142Y-59535142D01*
X107135714Y-59392285D01*
X107135714Y-58106571D01*
X108492857Y-59535142D02*
X108350000Y-59606571D01*
X108064285Y-59606571D01*
X107921428Y-59535142D01*
X107850000Y-59392285D01*
X107850000Y-58820857D01*
X107921428Y-58678000D01*
X108064285Y-58606571D01*
X108350000Y-58606571D01*
X108492857Y-58678000D01*
X108564285Y-58820857D01*
X108564285Y-58963714D01*
X107850000Y-59106571D01*
X109135714Y-59535142D02*
X109278571Y-59606571D01*
X109564285Y-59606571D01*
X109707142Y-59535142D01*
X109778571Y-59392285D01*
X109778571Y-59320857D01*
X109707142Y-59178000D01*
X109564285Y-59106571D01*
X109350000Y-59106571D01*
X109207142Y-59035142D01*
X109135714Y-58892285D01*
X109135714Y-58820857D01*
X109207142Y-58678000D01*
X109350000Y-58606571D01*
X109564285Y-58606571D01*
X109707142Y-58678000D01*
X110421428Y-59463714D02*
X110492857Y-59535142D01*
X110421428Y-59606571D01*
X110350000Y-59535142D01*
X110421428Y-59463714D01*
X110421428Y-59606571D01*
X111778571Y-59535142D02*
X111635714Y-59606571D01*
X111350000Y-59606571D01*
X111207142Y-59535142D01*
X111135714Y-59463714D01*
X111064285Y-59320857D01*
X111064285Y-58892285D01*
X111135714Y-58749428D01*
X111207142Y-58678000D01*
X111350000Y-58606571D01*
X111635714Y-58606571D01*
X111778571Y-58678000D01*
X112635714Y-59606571D02*
X112492857Y-59535142D01*
X112421428Y-59463714D01*
X112350000Y-59320857D01*
X112350000Y-58892285D01*
X112421428Y-58749428D01*
X112492857Y-58678000D01*
X112635714Y-58606571D01*
X112850000Y-58606571D01*
X112992857Y-58678000D01*
X113064285Y-58749428D01*
X113135714Y-58892285D01*
X113135714Y-59320857D01*
X113064285Y-59463714D01*
X112992857Y-59535142D01*
X112850000Y-59606571D01*
X112635714Y-59606571D01*
X113778571Y-59606571D02*
X113778571Y-58606571D01*
X113778571Y-58749428D02*
X113850000Y-58678000D01*
X113992857Y-58606571D01*
X114207142Y-58606571D01*
X114350000Y-58678000D01*
X114421428Y-58820857D01*
X114421428Y-59606571D01*
X114421428Y-58820857D02*
X114492857Y-58678000D01*
X114635714Y-58606571D01*
X114850000Y-58606571D01*
X114992857Y-58678000D01*
X115064285Y-58820857D01*
X115064285Y-59606571D01*
X89607428Y-74100571D02*
X89964571Y-75100571D01*
X90321714Y-74100571D01*
X90821714Y-73743428D02*
X90893142Y-73672000D01*
X91036000Y-73600571D01*
X91393142Y-73600571D01*
X91536000Y-73672000D01*
X91607428Y-73743428D01*
X91678857Y-73886285D01*
X91678857Y-74029142D01*
X91607428Y-74243428D01*
X90750285Y-75100571D01*
X91678857Y-75100571D01*
X92607428Y-73600571D02*
X92750285Y-73600571D01*
X92893142Y-73672000D01*
X92964571Y-73743428D01*
X93036000Y-73886285D01*
X93107428Y-74172000D01*
X93107428Y-74529142D01*
X93036000Y-74814857D01*
X92964571Y-74957714D01*
X92893142Y-75029142D01*
X92750285Y-75100571D01*
X92607428Y-75100571D01*
X92464571Y-75029142D01*
X92393142Y-74957714D01*
X92321714Y-74814857D01*
X92250285Y-74529142D01*
X92250285Y-74172000D01*
X92321714Y-73886285D01*
X92393142Y-73743428D01*
X92464571Y-73672000D01*
X92607428Y-73600571D01*
X94536000Y-75100571D02*
X93678857Y-75100571D01*
X94107428Y-75100571D02*
X94107428Y-73600571D01*
X93964571Y-73814857D01*
X93821714Y-73957714D01*
X93678857Y-74029142D01*
X95250285Y-75100571D02*
X95536000Y-75100571D01*
X95678857Y-75029142D01*
X95750285Y-74957714D01*
X95893142Y-74743428D01*
X95964571Y-74457714D01*
X95964571Y-73886285D01*
X95893142Y-73743428D01*
X95821714Y-73672000D01*
X95678857Y-73600571D01*
X95393142Y-73600571D01*
X95250285Y-73672000D01*
X95178857Y-73743428D01*
X95107428Y-73886285D01*
X95107428Y-74243428D01*
X95178857Y-74386285D01*
X95250285Y-74457714D01*
X95393142Y-74529142D01*
X95678857Y-74529142D01*
X95821714Y-74457714D01*
X95893142Y-74386285D01*
X95964571Y-74243428D01*
X96607428Y-74529142D02*
X97750285Y-74529142D01*
X98750285Y-73600571D02*
X98893142Y-73600571D01*
X99036000Y-73672000D01*
X99107428Y-73743428D01*
X99178857Y-73886285D01*
X99250285Y-74172000D01*
X99250285Y-74529142D01*
X99178857Y-74814857D01*
X99107428Y-74957714D01*
X99036000Y-75029142D01*
X98893142Y-75100571D01*
X98750285Y-75100571D01*
X98607428Y-75029142D01*
X98536000Y-74957714D01*
X98464571Y-74814857D01*
X98393142Y-74529142D01*
X98393142Y-74172000D01*
X98464571Y-73886285D01*
X98536000Y-73743428D01*
X98607428Y-73672000D01*
X98750285Y-73600571D01*
X99821714Y-73743428D02*
X99893142Y-73672000D01*
X100036000Y-73600571D01*
X100393142Y-73600571D01*
X100536000Y-73672000D01*
X100607428Y-73743428D01*
X100678857Y-73886285D01*
X100678857Y-74029142D01*
X100607428Y-74243428D01*
X99750285Y-75100571D01*
X100678857Y-75100571D01*
X101321714Y-74529142D02*
X102464571Y-74529142D01*
X103464571Y-73600571D02*
X103607428Y-73600571D01*
X103750285Y-73672000D01*
X103821714Y-73743428D01*
X103893142Y-73886285D01*
X103964571Y-74172000D01*
X103964571Y-74529142D01*
X103893142Y-74814857D01*
X103821714Y-74957714D01*
X103750285Y-75029142D01*
X103607428Y-75100571D01*
X103464571Y-75100571D01*
X103321714Y-75029142D01*
X103250285Y-74957714D01*
X103178857Y-74814857D01*
X103107428Y-74529142D01*
X103107428Y-74172000D01*
X103178857Y-73886285D01*
X103250285Y-73743428D01*
X103321714Y-73672000D01*
X103464571Y-73600571D01*
X104536000Y-73743428D02*
X104607428Y-73672000D01*
X104750285Y-73600571D01*
X105107428Y-73600571D01*
X105250285Y-73672000D01*
X105321714Y-73743428D01*
X105393142Y-73886285D01*
X105393142Y-74029142D01*
X105321714Y-74243428D01*
X104464571Y-75100571D01*
X105393142Y-75100571D01*
X124995714Y-73071428D02*
X125067142Y-73142857D01*
X125138571Y-73357142D01*
X125138571Y-73500000D01*
X125067142Y-73714285D01*
X124924285Y-73857142D01*
X124781428Y-73928571D01*
X124495714Y-74000000D01*
X124281428Y-74000000D01*
X123995714Y-73928571D01*
X123852857Y-73857142D01*
X123710000Y-73714285D01*
X123638571Y-73500000D01*
X123638571Y-73357142D01*
X123710000Y-73142857D01*
X123781428Y-73071428D01*
X124352857Y-72428571D02*
X124352857Y-71928571D01*
X125138571Y-71714285D02*
X125138571Y-72428571D01*
X123638571Y-72428571D01*
X123638571Y-71714285D01*
X125138571Y-69928571D02*
X123638571Y-69928571D01*
X124352857Y-69928571D02*
X124352857Y-69071428D01*
X125138571Y-69071428D02*
X123638571Y-69071428D01*
X125067142Y-67785714D02*
X125138571Y-67928571D01*
X125138571Y-68214285D01*
X125067142Y-68357142D01*
X124924285Y-68428571D01*
X124352857Y-68428571D01*
X124210000Y-68357142D01*
X124138571Y-68214285D01*
X124138571Y-67928571D01*
X124210000Y-67785714D01*
X124352857Y-67714285D01*
X124495714Y-67714285D01*
X124638571Y-68428571D01*
X125138571Y-66428571D02*
X124352857Y-66428571D01*
X124210000Y-66500000D01*
X124138571Y-66642857D01*
X124138571Y-66928571D01*
X124210000Y-67071428D01*
X125067142Y-66428571D02*
X125138571Y-66571428D01*
X125138571Y-66928571D01*
X125067142Y-67071428D01*
X124924285Y-67142857D01*
X124781428Y-67142857D01*
X124638571Y-67071428D01*
X124567142Y-66928571D01*
X124567142Y-66571428D01*
X124495714Y-66428571D01*
X125138571Y-65071428D02*
X123638571Y-65071428D01*
X125067142Y-65071428D02*
X125138571Y-65214285D01*
X125138571Y-65500000D01*
X125067142Y-65642857D01*
X124995714Y-65714285D01*
X124852857Y-65785714D01*
X124424285Y-65785714D01*
X124281428Y-65714285D01*
X124210000Y-65642857D01*
X124138571Y-65500000D01*
X124138571Y-65214285D01*
X124210000Y-65071428D01*
X125067142Y-63785714D02*
X125138571Y-63928571D01*
X125138571Y-64214285D01*
X125067142Y-64357142D01*
X124924285Y-64428571D01*
X124352857Y-64428571D01*
X124210000Y-64357142D01*
X124138571Y-64214285D01*
X124138571Y-63928571D01*
X124210000Y-63785714D01*
X124352857Y-63714285D01*
X124495714Y-63714285D01*
X124638571Y-64428571D01*
X125138571Y-63071428D02*
X124138571Y-63071428D01*
X124424285Y-63071428D02*
X124281428Y-63000000D01*
X124210000Y-62928571D01*
X124138571Y-62785714D01*
X124138571Y-62642857D01*
X124567142Y-61000000D02*
X124567142Y-59857142D01*
X125138571Y-58000000D02*
X123638571Y-58000000D01*
X125138571Y-57142857D01*
X123638571Y-57142857D01*
X125138571Y-55785714D02*
X124352857Y-55785714D01*
X124210000Y-55857142D01*
X124138571Y-56000000D01*
X124138571Y-56285714D01*
X124210000Y-56428571D01*
X125067142Y-55785714D02*
X125138571Y-55928571D01*
X125138571Y-56285714D01*
X125067142Y-56428571D01*
X124924285Y-56500000D01*
X124781428Y-56500000D01*
X124638571Y-56428571D01*
X124567142Y-56285714D01*
X124567142Y-55928571D01*
X124495714Y-55785714D01*
X124138571Y-55071428D02*
X125138571Y-55071428D01*
X124281428Y-55071428D02*
X124210000Y-55000000D01*
X124138571Y-54857142D01*
X124138571Y-54642857D01*
X124210000Y-54500000D01*
X124352857Y-54428571D01*
X125138571Y-54428571D01*
X125138571Y-53500000D02*
X125067142Y-53642857D01*
X124995714Y-53714285D01*
X124852857Y-53785714D01*
X124424285Y-53785714D01*
X124281428Y-53714285D01*
X124210000Y-53642857D01*
X124138571Y-53500000D01*
X124138571Y-53285714D01*
X124210000Y-53142857D01*
X124281428Y-53071428D01*
X124424285Y-53000000D01*
X124852857Y-53000000D01*
X124995714Y-53071428D01*
X125067142Y-53142857D01*
X125138571Y-53285714D01*
X125138571Y-53500000D01*
D11*
G04 #@! TO.C,A1*
X83820000Y-69850000D02*
X81280000Y-69850000D01*
X81280000Y-69850000D02*
X81280000Y-72520000D01*
X83820000Y-72520000D02*
X122050000Y-72520000D01*
X78610000Y-72520000D02*
X81280000Y-72520000D01*
X81280000Y-57150000D02*
X81280000Y-54480000D01*
X81280000Y-57150000D02*
X119380000Y-57150000D01*
X119380000Y-57150000D02*
X119380000Y-54480000D01*
X83820000Y-69850000D02*
X83820000Y-72520000D01*
X83820000Y-69850000D02*
X119380000Y-69850000D01*
X119380000Y-69850000D02*
X119380000Y-72520000D01*
X122050000Y-72520000D02*
X122050000Y-54480000D01*
X122050000Y-54480000D02*
X78610000Y-54480000D01*
X78610000Y-54480000D02*
X78610000Y-72520000D01*
G04 #@! TO.C,TP3*
X88580000Y-74422000D02*
G75*
G03X88580000Y-74422000I-950000J0D01*
G01*
G04 #@! TO.C,J1*
X113090000Y-66100000D02*
X113090000Y-60900000D01*
X90170000Y-66100000D02*
X113090000Y-66100000D01*
X87570000Y-60900000D02*
X113090000Y-60900000D01*
X90170000Y-66100000D02*
X90170000Y-63500000D01*
X90170000Y-63500000D02*
X87570000Y-63500000D01*
X87570000Y-63500000D02*
X87570000Y-60900000D01*
X88900000Y-66100000D02*
X87570000Y-66100000D01*
X87570000Y-66100000D02*
X87570000Y-64770000D01*
G04 #@! TO.C,J2*
X116900000Y-53908000D02*
X116900000Y-51248000D01*
X111760000Y-53908000D02*
X116900000Y-53908000D01*
X111760000Y-51248000D02*
X116900000Y-51248000D01*
X111760000Y-53908000D02*
X111760000Y-51248000D01*
X110490000Y-53908000D02*
X109160000Y-53908000D01*
X109160000Y-53908000D02*
X109160000Y-52578000D01*
G04 #@! TO.C,J3*
X121980000Y-75752000D02*
X121980000Y-73092000D01*
X109220000Y-75752000D02*
X121980000Y-75752000D01*
X109220000Y-73092000D02*
X121980000Y-73092000D01*
X109220000Y-75752000D02*
X109220000Y-73092000D01*
X107950000Y-75752000D02*
X106620000Y-75752000D01*
X106620000Y-75752000D02*
X106620000Y-74422000D01*
G04 #@! TO.C,J4*
X91380000Y-51248000D02*
X91380000Y-53908000D01*
X99060000Y-51248000D02*
X91380000Y-51248000D01*
X99060000Y-53908000D02*
X91380000Y-53908000D01*
X99060000Y-51248000D02*
X99060000Y-53908000D01*
X100330000Y-51248000D02*
X101660000Y-51248000D01*
X101660000Y-51248000D02*
X101660000Y-52578000D01*
G04 #@! TD*
M02*
