G04 #@! TF.GenerationSoftware,KiCad,Pcbnew,(5.0.2)-1*
G04 #@! TF.CreationDate,2019-02-02T18:03:16-06:00*
G04 #@! TF.ProjectId,CE-Header-Arduino-Nano,43452d48-6561-4646-9572-2d4172647569,1.0*
G04 #@! TF.SameCoordinates,Original*
G04 #@! TF.FileFunction,Copper,L2,Bot*
G04 #@! TF.FilePolarity,Positive*
%FSLAX46Y46*%
G04 Gerber Fmt 4.6, Leading zero omitted, Abs format (unit mm)*
G04 Created by KiCad (PCBNEW (5.0.2)-1) date 2/2/2019 6:03:16 PM*
%MOMM*%
%LPD*%
G01*
G04 APERTURE LIST*
G04 #@! TA.AperFunction,ComponentPad*
%ADD10R,1.600000X1.600000*%
G04 #@! TD*
G04 #@! TA.AperFunction,ComponentPad*
%ADD11O,1.600000X1.600000*%
G04 #@! TD*
G04 #@! TA.AperFunction,ComponentPad*
%ADD12R,1.700000X1.700000*%
G04 #@! TD*
G04 #@! TA.AperFunction,ComponentPad*
%ADD13O,1.700000X1.700000*%
G04 #@! TD*
G04 #@! TA.AperFunction,Conductor*
%ADD14C,0.250000*%
G04 #@! TD*
G04 #@! TA.AperFunction,Conductor*
%ADD15C,0.254000*%
G04 #@! TD*
G04 APERTURE END LIST*
D10*
G04 #@! TO.P,A1,1*
G04 #@! TO.N,/GPIO_D1*
X82550000Y-71120000D03*
D11*
G04 #@! TO.P,A1,17*
G04 #@! TO.N,Net-(A1-Pad17)*
X115570000Y-55880000D03*
G04 #@! TO.P,A1,2*
G04 #@! TO.N,/GPIO_D0*
X85090000Y-71120000D03*
G04 #@! TO.P,A1,18*
G04 #@! TO.N,/PWR_IO*
X113030000Y-55880000D03*
G04 #@! TO.P,A1,3*
G04 #@! TO.N,Net-(A1-Pad3)*
X87630000Y-71120000D03*
G04 #@! TO.P,A1,19*
G04 #@! TO.N,/GPIO_A0*
X110490000Y-55880000D03*
G04 #@! TO.P,A1,4*
G04 #@! TO.N,GND*
X90170000Y-71120000D03*
G04 #@! TO.P,A1,20*
G04 #@! TO.N,/GPIO_A1*
X107950000Y-55880000D03*
G04 #@! TO.P,A1,5*
G04 #@! TO.N,/GPIO_D2*
X92710000Y-71120000D03*
G04 #@! TO.P,A1,21*
G04 #@! TO.N,/GPIO_A2*
X105410000Y-55880000D03*
G04 #@! TO.P,A1,6*
G04 #@! TO.N,/GPIO_D3*
X95250000Y-71120000D03*
G04 #@! TO.P,A1,22*
G04 #@! TO.N,/GPIO_A3*
X102870000Y-55880000D03*
G04 #@! TO.P,A1,7*
G04 #@! TO.N,/GPIO_D4*
X97790000Y-71120000D03*
G04 #@! TO.P,A1,23*
G04 #@! TO.N,Net-(A1-Pad23)*
X100330000Y-55880000D03*
G04 #@! TO.P,A1,8*
G04 #@! TO.N,/GPIO_D5*
X100330000Y-71120000D03*
G04 #@! TO.P,A1,24*
G04 #@! TO.N,Net-(A1-Pad24)*
X97790000Y-55880000D03*
G04 #@! TO.P,A1,9*
G04 #@! TO.N,/GPIO_D6*
X102870000Y-71120000D03*
G04 #@! TO.P,A1,25*
G04 #@! TO.N,Net-(A1-Pad25)*
X95250000Y-55880000D03*
G04 #@! TO.P,A1,10*
G04 #@! TO.N,/GPIO_D7*
X105410000Y-71120000D03*
G04 #@! TO.P,A1,26*
G04 #@! TO.N,Net-(A1-Pad26)*
X92710000Y-55880000D03*
G04 #@! TO.P,A1,11*
G04 #@! TO.N,Net-(A1-Pad11)*
X107950000Y-71120000D03*
G04 #@! TO.P,A1,27*
G04 #@! TO.N,Net-(A1-Pad27)*
X90170000Y-55880000D03*
G04 #@! TO.P,A1,12*
G04 #@! TO.N,Net-(A1-Pad12)*
X110490000Y-71120000D03*
G04 #@! TO.P,A1,28*
G04 #@! TO.N,N/C*
X87630000Y-55880000D03*
G04 #@! TO.P,A1,13*
G04 #@! TO.N,Net-(A1-Pad13)*
X113030000Y-71120000D03*
G04 #@! TO.P,A1,29*
G04 #@! TO.N,GND*
X85090000Y-55880000D03*
G04 #@! TO.P,A1,14*
G04 #@! TO.N,Net-(A1-Pad14)*
X115570000Y-71120000D03*
G04 #@! TO.P,A1,30*
G04 #@! TO.N,/PWR_CORE*
X82550000Y-55880000D03*
G04 #@! TO.P,A1,15*
G04 #@! TO.N,Net-(A1-Pad15)*
X118110000Y-71120000D03*
G04 #@! TO.P,A1,16*
G04 #@! TO.N,Net-(A1-Pad16)*
X118110000Y-55880000D03*
G04 #@! TD*
D12*
G04 #@! TO.P,J1,1*
G04 #@! TO.N,/PWR_IO*
X88900000Y-64770000D03*
D13*
G04 #@! TO.P,J1,2*
G04 #@! TO.N,N/C*
X88900000Y-62230000D03*
G04 #@! TO.P,J1,3*
G04 #@! TO.N,/GPIO_D0*
X91440000Y-64770000D03*
G04 #@! TO.P,J1,4*
G04 #@! TO.N,/GPIO_D1*
X91440000Y-62230000D03*
G04 #@! TO.P,J1,5*
G04 #@! TO.N,/GPIO_D2*
X93980000Y-64770000D03*
G04 #@! TO.P,J1,6*
G04 #@! TO.N,/GPIO_D3*
X93980000Y-62230000D03*
G04 #@! TO.P,J1,7*
G04 #@! TO.N,/GPIO_D4*
X96520000Y-64770000D03*
G04 #@! TO.P,J1,8*
G04 #@! TO.N,/GPIO_D5*
X96520000Y-62230000D03*
G04 #@! TO.P,J1,9*
G04 #@! TO.N,N/C*
X99060000Y-64770000D03*
G04 #@! TO.P,J1,10*
G04 #@! TO.N,GND*
X99060000Y-62230000D03*
G04 #@! TO.P,J1,11*
G04 #@! TO.N,N/C*
X101600000Y-64770000D03*
G04 #@! TO.P,J1,12*
G04 #@! TO.N,/PWR_CORE*
X101600000Y-62230000D03*
G04 #@! TO.P,J1,13*
G04 #@! TO.N,/GPIO_D6*
X104140000Y-64770000D03*
G04 #@! TO.P,J1,14*
G04 #@! TO.N,/GPIO_D7*
X104140000Y-62230000D03*
G04 #@! TO.P,J1,15*
G04 #@! TO.N,/GPIO_A0*
X106680000Y-64770000D03*
G04 #@! TO.P,J1,16*
G04 #@! TO.N,/GPIO_A1*
X106680000Y-62230000D03*
G04 #@! TO.P,J1,17*
G04 #@! TO.N,/GPIO_A2*
X109220000Y-64770000D03*
G04 #@! TO.P,J1,18*
G04 #@! TO.N,/GPIO_A3*
X109220000Y-62230000D03*
G04 #@! TO.P,J1,19*
G04 #@! TO.N,GND*
X111760000Y-64770000D03*
G04 #@! TO.P,J1,20*
G04 #@! TO.N,N/C*
X111760000Y-62230000D03*
G04 #@! TD*
D12*
G04 #@! TO.P,J2,1*
G04 #@! TO.N,GND*
X110490000Y-52578000D03*
D13*
G04 #@! TO.P,J2,2*
G04 #@! TO.N,Net-(A1-Pad27)*
X113030000Y-52578000D03*
G04 #@! TO.P,J2,3*
G04 #@! TO.N,Net-(A1-Pad17)*
X115570000Y-52578000D03*
G04 #@! TD*
D12*
G04 #@! TO.P,J3,1*
G04 #@! TO.N,Net-(A1-Pad11)*
X107950000Y-74422000D03*
D13*
G04 #@! TO.P,J3,2*
G04 #@! TO.N,Net-(A1-Pad12)*
X110490000Y-74422000D03*
G04 #@! TO.P,J3,3*
G04 #@! TO.N,Net-(A1-Pad13)*
X113030000Y-74422000D03*
G04 #@! TO.P,J3,4*
G04 #@! TO.N,Net-(A1-Pad14)*
X115570000Y-74422000D03*
G04 #@! TO.P,J3,5*
G04 #@! TO.N,Net-(A1-Pad15)*
X118110000Y-74422000D03*
G04 #@! TO.P,J3,6*
G04 #@! TO.N,Net-(A1-Pad16)*
X120650000Y-74422000D03*
G04 #@! TD*
D12*
G04 #@! TO.P,J4,1*
G04 #@! TO.N,Net-(A1-Pad23)*
X100330000Y-52578000D03*
D13*
G04 #@! TO.P,J4,2*
G04 #@! TO.N,Net-(A1-Pad24)*
X97790000Y-52578000D03*
G04 #@! TO.P,J4,3*
G04 #@! TO.N,Net-(A1-Pad25)*
X95250000Y-52578000D03*
G04 #@! TO.P,J4,4*
G04 #@! TO.N,Net-(A1-Pad26)*
X92710000Y-52578000D03*
G04 #@! TD*
D14*
G04 #@! TO.N,/GPIO_D1*
X82550000Y-71120000D02*
X82550000Y-66040000D01*
X82550000Y-66040000D02*
X87630000Y-60960000D01*
X90170000Y-60960000D02*
X91440000Y-62230000D01*
X87630000Y-60960000D02*
X90170000Y-60960000D01*
G04 #@! TO.N,Net-(A1-Pad17)*
X115570000Y-52578000D02*
X115570000Y-55880000D01*
G04 #@! TO.N,/GPIO_D0*
X90170000Y-63500000D02*
X91440000Y-64770000D01*
X87630000Y-63500000D02*
X90170000Y-63500000D01*
X85090000Y-71120000D02*
X85090000Y-66040000D01*
X85090000Y-66040000D02*
X87630000Y-63500000D01*
G04 #@! TO.N,/PWR_IO*
X114300000Y-57150000D02*
X113030000Y-55880000D01*
X114300000Y-64770000D02*
X114300000Y-57150000D01*
X111760000Y-67310000D02*
X114300000Y-64770000D01*
X90340000Y-67310000D02*
X111760000Y-67310000D01*
X88900000Y-64770000D02*
X88900000Y-65870000D01*
X88900000Y-65870000D02*
X90340000Y-67310000D01*
G04 #@! TO.N,/GPIO_A0*
X105315001Y-63405001D02*
X103575999Y-63405001D01*
X102775001Y-62604003D02*
X102775001Y-59990003D01*
X100341986Y-54203012D02*
X108813012Y-54203012D01*
X99060000Y-56275002D02*
X99060000Y-55484998D01*
X109690001Y-55080001D02*
X110490000Y-55880000D01*
X102775001Y-59990003D02*
X99060000Y-56275002D01*
X103575999Y-63405001D02*
X102775001Y-62604003D01*
X106680000Y-64770000D02*
X105315001Y-63405001D01*
X108813012Y-54203012D02*
X109690001Y-55080001D01*
X99060000Y-55484998D02*
X100341986Y-54203012D01*
G04 #@! TO.N,/GPIO_A1*
X106680000Y-62230000D02*
X101600000Y-57150000D01*
X107150001Y-55080001D02*
X107950000Y-55880000D01*
X106824999Y-54754999D02*
X107150001Y-55080001D01*
X102329999Y-54754999D02*
X106824999Y-54754999D01*
X101600000Y-55484998D02*
X102329999Y-54754999D01*
X101600000Y-57150000D02*
X101600000Y-55484998D01*
G04 #@! TO.N,/GPIO_A2*
X106209999Y-56679999D02*
X105410000Y-55880000D01*
X110395001Y-60865001D02*
X106209999Y-56679999D01*
X110395001Y-63594999D02*
X110395001Y-60865001D01*
X109220000Y-64770000D02*
X110395001Y-63594999D01*
G04 #@! TO.N,/GPIO_A3*
X109220000Y-62230000D02*
X102870000Y-55880000D01*
G04 #@! TO.N,Net-(A1-Pad27)*
X112180001Y-53427999D02*
X113030000Y-52578000D01*
X111854999Y-53753001D02*
X112180001Y-53427999D01*
X92296999Y-53753001D02*
X111854999Y-53753001D01*
X90170000Y-55880000D02*
X92296999Y-53753001D01*
G04 #@! TO.N,Net-(A1-Pad16)*
X120650000Y-58420000D02*
X120650000Y-74422000D01*
X118110000Y-55880000D02*
X120650000Y-58420000D01*
G04 #@! TD*
D15*
G04 #@! TO.N,/PWR_CORE*
G36*
X91311161Y-51998582D02*
X91195908Y-52578000D01*
X91311161Y-53157418D01*
X91514084Y-53461114D01*
X90493886Y-54481312D01*
X90311333Y-54445000D01*
X90028667Y-54445000D01*
X89610091Y-54528260D01*
X89135423Y-54845423D01*
X88900000Y-55197758D01*
X88664577Y-54845423D01*
X88189909Y-54528260D01*
X87771333Y-54445000D01*
X87488667Y-54445000D01*
X87070091Y-54528260D01*
X86595423Y-54845423D01*
X86360000Y-55197758D01*
X86124577Y-54845423D01*
X85649909Y-54528260D01*
X85231333Y-54445000D01*
X84948667Y-54445000D01*
X84530091Y-54528260D01*
X84055423Y-54845423D01*
X83799053Y-55229108D01*
X83702389Y-55024866D01*
X83287423Y-54648959D01*
X82899039Y-54488096D01*
X82677000Y-54610085D01*
X82677000Y-55753000D01*
X82697000Y-55753000D01*
X82697000Y-56007000D01*
X82677000Y-56007000D01*
X82677000Y-57149915D01*
X82899039Y-57271904D01*
X83287423Y-57111041D01*
X83702389Y-56735134D01*
X83799053Y-56530892D01*
X84055423Y-56914577D01*
X84530091Y-57231740D01*
X84948667Y-57315000D01*
X85231333Y-57315000D01*
X85649909Y-57231740D01*
X86124577Y-56914577D01*
X86360000Y-56562242D01*
X86595423Y-56914577D01*
X87070091Y-57231740D01*
X87488667Y-57315000D01*
X87771333Y-57315000D01*
X88189909Y-57231740D01*
X88664577Y-56914577D01*
X88900000Y-56562242D01*
X89135423Y-56914577D01*
X89610091Y-57231740D01*
X90028667Y-57315000D01*
X90311333Y-57315000D01*
X90729909Y-57231740D01*
X91204577Y-56914577D01*
X91440000Y-56562242D01*
X91675423Y-56914577D01*
X92150091Y-57231740D01*
X92568667Y-57315000D01*
X92851333Y-57315000D01*
X93269909Y-57231740D01*
X93744577Y-56914577D01*
X93980000Y-56562242D01*
X94215423Y-56914577D01*
X94690091Y-57231740D01*
X95108667Y-57315000D01*
X95391333Y-57315000D01*
X95809909Y-57231740D01*
X96284577Y-56914577D01*
X96520000Y-56562242D01*
X96755423Y-56914577D01*
X97230091Y-57231740D01*
X97648667Y-57315000D01*
X97931333Y-57315000D01*
X98349909Y-57231740D01*
X98704804Y-56994607D01*
X102015002Y-60304806D01*
X102015002Y-60812593D01*
X101956890Y-60788524D01*
X101727000Y-60909845D01*
X101727000Y-62103000D01*
X101747000Y-62103000D01*
X101747000Y-62357000D01*
X101727000Y-62357000D01*
X101727000Y-62377000D01*
X101473000Y-62377000D01*
X101473000Y-62357000D01*
X101453000Y-62357000D01*
X101453000Y-62103000D01*
X101473000Y-62103000D01*
X101473000Y-60909845D01*
X101243110Y-60788524D01*
X100833076Y-60958355D01*
X100404817Y-61348642D01*
X100343843Y-61478478D01*
X100130625Y-61159375D01*
X99639418Y-60831161D01*
X99206256Y-60745000D01*
X98913744Y-60745000D01*
X98480582Y-60831161D01*
X97989375Y-61159375D01*
X97790000Y-61457761D01*
X97590625Y-61159375D01*
X97099418Y-60831161D01*
X96666256Y-60745000D01*
X96373744Y-60745000D01*
X95940582Y-60831161D01*
X95449375Y-61159375D01*
X95250000Y-61457761D01*
X95050625Y-61159375D01*
X94559418Y-60831161D01*
X94126256Y-60745000D01*
X93833744Y-60745000D01*
X93400582Y-60831161D01*
X92909375Y-61159375D01*
X92710000Y-61457761D01*
X92510625Y-61159375D01*
X92019418Y-60831161D01*
X91586256Y-60745000D01*
X91293744Y-60745000D01*
X91073592Y-60788791D01*
X90760331Y-60475530D01*
X90717929Y-60412071D01*
X90466537Y-60244096D01*
X90244852Y-60200000D01*
X90244847Y-60200000D01*
X90170000Y-60185112D01*
X90095153Y-60200000D01*
X87704847Y-60200000D01*
X87630000Y-60185112D01*
X87555153Y-60200000D01*
X87555148Y-60200000D01*
X87333463Y-60244096D01*
X87082071Y-60412071D01*
X87039671Y-60475527D01*
X82065528Y-65449671D01*
X82002072Y-65492071D01*
X81959672Y-65555527D01*
X81959671Y-65555528D01*
X81834097Y-65743463D01*
X81775112Y-66040000D01*
X81790001Y-66114852D01*
X81790000Y-69672560D01*
X81750000Y-69672560D01*
X81502235Y-69721843D01*
X81292191Y-69862191D01*
X81151843Y-70072235D01*
X81102560Y-70320000D01*
X81102560Y-71920000D01*
X81151843Y-72167765D01*
X81292191Y-72377809D01*
X81502235Y-72518157D01*
X81750000Y-72567440D01*
X83350000Y-72567440D01*
X83597765Y-72518157D01*
X83807809Y-72377809D01*
X83948157Y-72167765D01*
X83974785Y-72033894D01*
X84055423Y-72154577D01*
X84530091Y-72471740D01*
X84948667Y-72555000D01*
X85231333Y-72555000D01*
X85649909Y-72471740D01*
X86124577Y-72154577D01*
X86360000Y-71802242D01*
X86595423Y-72154577D01*
X87070091Y-72471740D01*
X87488667Y-72555000D01*
X87771333Y-72555000D01*
X88189909Y-72471740D01*
X88664577Y-72154577D01*
X88900000Y-71802242D01*
X89135423Y-72154577D01*
X89610091Y-72471740D01*
X90028667Y-72555000D01*
X90311333Y-72555000D01*
X90729909Y-72471740D01*
X91204577Y-72154577D01*
X91440000Y-71802242D01*
X91675423Y-72154577D01*
X92150091Y-72471740D01*
X92568667Y-72555000D01*
X92851333Y-72555000D01*
X93269909Y-72471740D01*
X93744577Y-72154577D01*
X93980000Y-71802242D01*
X94215423Y-72154577D01*
X94690091Y-72471740D01*
X95108667Y-72555000D01*
X95391333Y-72555000D01*
X95809909Y-72471740D01*
X96284577Y-72154577D01*
X96520000Y-71802242D01*
X96755423Y-72154577D01*
X97230091Y-72471740D01*
X97648667Y-72555000D01*
X97931333Y-72555000D01*
X98349909Y-72471740D01*
X98824577Y-72154577D01*
X99060000Y-71802242D01*
X99295423Y-72154577D01*
X99770091Y-72471740D01*
X100188667Y-72555000D01*
X100471333Y-72555000D01*
X100889909Y-72471740D01*
X101364577Y-72154577D01*
X101600000Y-71802242D01*
X101835423Y-72154577D01*
X102310091Y-72471740D01*
X102728667Y-72555000D01*
X103011333Y-72555000D01*
X103429909Y-72471740D01*
X103904577Y-72154577D01*
X104140000Y-71802242D01*
X104375423Y-72154577D01*
X104850091Y-72471740D01*
X105268667Y-72555000D01*
X105551333Y-72555000D01*
X105969909Y-72471740D01*
X106444577Y-72154577D01*
X106680000Y-71802242D01*
X106915423Y-72154577D01*
X107390091Y-72471740D01*
X107808667Y-72555000D01*
X108091333Y-72555000D01*
X108509909Y-72471740D01*
X108984577Y-72154577D01*
X109220000Y-71802242D01*
X109455423Y-72154577D01*
X109930091Y-72471740D01*
X110348667Y-72555000D01*
X110631333Y-72555000D01*
X111049909Y-72471740D01*
X111524577Y-72154577D01*
X111760000Y-71802242D01*
X111995423Y-72154577D01*
X112470091Y-72471740D01*
X112888667Y-72555000D01*
X113171333Y-72555000D01*
X113589909Y-72471740D01*
X114064577Y-72154577D01*
X114300000Y-71802242D01*
X114535423Y-72154577D01*
X115010091Y-72471740D01*
X115428667Y-72555000D01*
X115711333Y-72555000D01*
X116129909Y-72471740D01*
X116604577Y-72154577D01*
X116840000Y-71802242D01*
X117075423Y-72154577D01*
X117550091Y-72471740D01*
X117968667Y-72555000D01*
X118251333Y-72555000D01*
X118669909Y-72471740D01*
X119144577Y-72154577D01*
X119461740Y-71679909D01*
X119573113Y-71120000D01*
X119461740Y-70560091D01*
X119144577Y-70085423D01*
X118669909Y-69768260D01*
X118251333Y-69685000D01*
X117968667Y-69685000D01*
X117550091Y-69768260D01*
X117075423Y-70085423D01*
X116840000Y-70437758D01*
X116604577Y-70085423D01*
X116129909Y-69768260D01*
X115711333Y-69685000D01*
X115428667Y-69685000D01*
X115010091Y-69768260D01*
X114535423Y-70085423D01*
X114300000Y-70437758D01*
X114064577Y-70085423D01*
X113589909Y-69768260D01*
X113171333Y-69685000D01*
X112888667Y-69685000D01*
X112470091Y-69768260D01*
X111995423Y-70085423D01*
X111760000Y-70437758D01*
X111524577Y-70085423D01*
X111049909Y-69768260D01*
X110631333Y-69685000D01*
X110348667Y-69685000D01*
X109930091Y-69768260D01*
X109455423Y-70085423D01*
X109220000Y-70437758D01*
X108984577Y-70085423D01*
X108509909Y-69768260D01*
X108091333Y-69685000D01*
X107808667Y-69685000D01*
X107390091Y-69768260D01*
X106915423Y-70085423D01*
X106680000Y-70437758D01*
X106444577Y-70085423D01*
X105969909Y-69768260D01*
X105551333Y-69685000D01*
X105268667Y-69685000D01*
X104850091Y-69768260D01*
X104375423Y-70085423D01*
X104140000Y-70437758D01*
X103904577Y-70085423D01*
X103429909Y-69768260D01*
X103011333Y-69685000D01*
X102728667Y-69685000D01*
X102310091Y-69768260D01*
X101835423Y-70085423D01*
X101600000Y-70437758D01*
X101364577Y-70085423D01*
X100889909Y-69768260D01*
X100471333Y-69685000D01*
X100188667Y-69685000D01*
X99770091Y-69768260D01*
X99295423Y-70085423D01*
X99060000Y-70437758D01*
X98824577Y-70085423D01*
X98349909Y-69768260D01*
X97931333Y-69685000D01*
X97648667Y-69685000D01*
X97230091Y-69768260D01*
X96755423Y-70085423D01*
X96520000Y-70437758D01*
X96284577Y-70085423D01*
X95809909Y-69768260D01*
X95391333Y-69685000D01*
X95108667Y-69685000D01*
X94690091Y-69768260D01*
X94215423Y-70085423D01*
X93980000Y-70437758D01*
X93744577Y-70085423D01*
X93269909Y-69768260D01*
X92851333Y-69685000D01*
X92568667Y-69685000D01*
X92150091Y-69768260D01*
X91675423Y-70085423D01*
X91440000Y-70437758D01*
X91204577Y-70085423D01*
X90729909Y-69768260D01*
X90311333Y-69685000D01*
X90028667Y-69685000D01*
X89610091Y-69768260D01*
X89135423Y-70085423D01*
X88900000Y-70437758D01*
X88664577Y-70085423D01*
X88189909Y-69768260D01*
X87771333Y-69685000D01*
X87488667Y-69685000D01*
X87070091Y-69768260D01*
X86595423Y-70085423D01*
X86360000Y-70437758D01*
X86124577Y-70085423D01*
X85850000Y-69901957D01*
X85850000Y-66354801D01*
X87402560Y-64802242D01*
X87402560Y-65620000D01*
X87451843Y-65867765D01*
X87592191Y-66077809D01*
X87802235Y-66218157D01*
X88050000Y-66267440D01*
X88251518Y-66267440D01*
X88297688Y-66336537D01*
X88352072Y-66417929D01*
X88415528Y-66460329D01*
X89749671Y-67794473D01*
X89792071Y-67857929D01*
X90043463Y-68025904D01*
X90265148Y-68070000D01*
X90265152Y-68070000D01*
X90340000Y-68084888D01*
X90414848Y-68070000D01*
X111685153Y-68070000D01*
X111760000Y-68084888D01*
X111834847Y-68070000D01*
X111834852Y-68070000D01*
X112056537Y-68025904D01*
X112307929Y-67857929D01*
X112350331Y-67794470D01*
X114784476Y-65360327D01*
X114847929Y-65317929D01*
X114890327Y-65254476D01*
X114890329Y-65254474D01*
X115015903Y-65066538D01*
X115015904Y-65066537D01*
X115060000Y-64844852D01*
X115060000Y-64844848D01*
X115074888Y-64770001D01*
X115060000Y-64695154D01*
X115060000Y-57241668D01*
X115428667Y-57315000D01*
X115711333Y-57315000D01*
X116129909Y-57231740D01*
X116604577Y-56914577D01*
X116840000Y-56562242D01*
X117075423Y-56914577D01*
X117550091Y-57231740D01*
X117968667Y-57315000D01*
X118251333Y-57315000D01*
X118433886Y-57278688D01*
X119890000Y-58734803D01*
X119890001Y-73143821D01*
X119579375Y-73351375D01*
X119380000Y-73649761D01*
X119180625Y-73351375D01*
X118689418Y-73023161D01*
X118256256Y-72937000D01*
X117963744Y-72937000D01*
X117530582Y-73023161D01*
X117039375Y-73351375D01*
X116840000Y-73649761D01*
X116640625Y-73351375D01*
X116149418Y-73023161D01*
X115716256Y-72937000D01*
X115423744Y-72937000D01*
X114990582Y-73023161D01*
X114499375Y-73351375D01*
X114300000Y-73649761D01*
X114100625Y-73351375D01*
X113609418Y-73023161D01*
X113176256Y-72937000D01*
X112883744Y-72937000D01*
X112450582Y-73023161D01*
X111959375Y-73351375D01*
X111760000Y-73649761D01*
X111560625Y-73351375D01*
X111069418Y-73023161D01*
X110636256Y-72937000D01*
X110343744Y-72937000D01*
X109910582Y-73023161D01*
X109419375Y-73351375D01*
X109407184Y-73369619D01*
X109398157Y-73324235D01*
X109257809Y-73114191D01*
X109047765Y-72973843D01*
X108800000Y-72924560D01*
X107100000Y-72924560D01*
X106852235Y-72973843D01*
X106642191Y-73114191D01*
X106501843Y-73324235D01*
X106452560Y-73572000D01*
X106452560Y-75272000D01*
X106495922Y-75490000D01*
X76910000Y-75490000D01*
X76910000Y-56229041D01*
X81158086Y-56229041D01*
X81397611Y-56735134D01*
X81812577Y-57111041D01*
X82200961Y-57271904D01*
X82423000Y-57149915D01*
X82423000Y-56007000D01*
X81279371Y-56007000D01*
X81158086Y-56229041D01*
X76910000Y-56229041D01*
X76910000Y-55530959D01*
X81158086Y-55530959D01*
X81279371Y-55753000D01*
X82423000Y-55753000D01*
X82423000Y-54610085D01*
X82200961Y-54488096D01*
X81812577Y-54648959D01*
X81397611Y-55024866D01*
X81158086Y-55530959D01*
X76910000Y-55530959D01*
X76910000Y-51510000D01*
X91637621Y-51510000D01*
X91311161Y-51998582D01*
X91311161Y-51998582D01*
G37*
X91311161Y-51998582D02*
X91195908Y-52578000D01*
X91311161Y-53157418D01*
X91514084Y-53461114D01*
X90493886Y-54481312D01*
X90311333Y-54445000D01*
X90028667Y-54445000D01*
X89610091Y-54528260D01*
X89135423Y-54845423D01*
X88900000Y-55197758D01*
X88664577Y-54845423D01*
X88189909Y-54528260D01*
X87771333Y-54445000D01*
X87488667Y-54445000D01*
X87070091Y-54528260D01*
X86595423Y-54845423D01*
X86360000Y-55197758D01*
X86124577Y-54845423D01*
X85649909Y-54528260D01*
X85231333Y-54445000D01*
X84948667Y-54445000D01*
X84530091Y-54528260D01*
X84055423Y-54845423D01*
X83799053Y-55229108D01*
X83702389Y-55024866D01*
X83287423Y-54648959D01*
X82899039Y-54488096D01*
X82677000Y-54610085D01*
X82677000Y-55753000D01*
X82697000Y-55753000D01*
X82697000Y-56007000D01*
X82677000Y-56007000D01*
X82677000Y-57149915D01*
X82899039Y-57271904D01*
X83287423Y-57111041D01*
X83702389Y-56735134D01*
X83799053Y-56530892D01*
X84055423Y-56914577D01*
X84530091Y-57231740D01*
X84948667Y-57315000D01*
X85231333Y-57315000D01*
X85649909Y-57231740D01*
X86124577Y-56914577D01*
X86360000Y-56562242D01*
X86595423Y-56914577D01*
X87070091Y-57231740D01*
X87488667Y-57315000D01*
X87771333Y-57315000D01*
X88189909Y-57231740D01*
X88664577Y-56914577D01*
X88900000Y-56562242D01*
X89135423Y-56914577D01*
X89610091Y-57231740D01*
X90028667Y-57315000D01*
X90311333Y-57315000D01*
X90729909Y-57231740D01*
X91204577Y-56914577D01*
X91440000Y-56562242D01*
X91675423Y-56914577D01*
X92150091Y-57231740D01*
X92568667Y-57315000D01*
X92851333Y-57315000D01*
X93269909Y-57231740D01*
X93744577Y-56914577D01*
X93980000Y-56562242D01*
X94215423Y-56914577D01*
X94690091Y-57231740D01*
X95108667Y-57315000D01*
X95391333Y-57315000D01*
X95809909Y-57231740D01*
X96284577Y-56914577D01*
X96520000Y-56562242D01*
X96755423Y-56914577D01*
X97230091Y-57231740D01*
X97648667Y-57315000D01*
X97931333Y-57315000D01*
X98349909Y-57231740D01*
X98704804Y-56994607D01*
X102015002Y-60304806D01*
X102015002Y-60812593D01*
X101956890Y-60788524D01*
X101727000Y-60909845D01*
X101727000Y-62103000D01*
X101747000Y-62103000D01*
X101747000Y-62357000D01*
X101727000Y-62357000D01*
X101727000Y-62377000D01*
X101473000Y-62377000D01*
X101473000Y-62357000D01*
X101453000Y-62357000D01*
X101453000Y-62103000D01*
X101473000Y-62103000D01*
X101473000Y-60909845D01*
X101243110Y-60788524D01*
X100833076Y-60958355D01*
X100404817Y-61348642D01*
X100343843Y-61478478D01*
X100130625Y-61159375D01*
X99639418Y-60831161D01*
X99206256Y-60745000D01*
X98913744Y-60745000D01*
X98480582Y-60831161D01*
X97989375Y-61159375D01*
X97790000Y-61457761D01*
X97590625Y-61159375D01*
X97099418Y-60831161D01*
X96666256Y-60745000D01*
X96373744Y-60745000D01*
X95940582Y-60831161D01*
X95449375Y-61159375D01*
X95250000Y-61457761D01*
X95050625Y-61159375D01*
X94559418Y-60831161D01*
X94126256Y-60745000D01*
X93833744Y-60745000D01*
X93400582Y-60831161D01*
X92909375Y-61159375D01*
X92710000Y-61457761D01*
X92510625Y-61159375D01*
X92019418Y-60831161D01*
X91586256Y-60745000D01*
X91293744Y-60745000D01*
X91073592Y-60788791D01*
X90760331Y-60475530D01*
X90717929Y-60412071D01*
X90466537Y-60244096D01*
X90244852Y-60200000D01*
X90244847Y-60200000D01*
X90170000Y-60185112D01*
X90095153Y-60200000D01*
X87704847Y-60200000D01*
X87630000Y-60185112D01*
X87555153Y-60200000D01*
X87555148Y-60200000D01*
X87333463Y-60244096D01*
X87082071Y-60412071D01*
X87039671Y-60475527D01*
X82065528Y-65449671D01*
X82002072Y-65492071D01*
X81959672Y-65555527D01*
X81959671Y-65555528D01*
X81834097Y-65743463D01*
X81775112Y-66040000D01*
X81790001Y-66114852D01*
X81790000Y-69672560D01*
X81750000Y-69672560D01*
X81502235Y-69721843D01*
X81292191Y-69862191D01*
X81151843Y-70072235D01*
X81102560Y-70320000D01*
X81102560Y-71920000D01*
X81151843Y-72167765D01*
X81292191Y-72377809D01*
X81502235Y-72518157D01*
X81750000Y-72567440D01*
X83350000Y-72567440D01*
X83597765Y-72518157D01*
X83807809Y-72377809D01*
X83948157Y-72167765D01*
X83974785Y-72033894D01*
X84055423Y-72154577D01*
X84530091Y-72471740D01*
X84948667Y-72555000D01*
X85231333Y-72555000D01*
X85649909Y-72471740D01*
X86124577Y-72154577D01*
X86360000Y-71802242D01*
X86595423Y-72154577D01*
X87070091Y-72471740D01*
X87488667Y-72555000D01*
X87771333Y-72555000D01*
X88189909Y-72471740D01*
X88664577Y-72154577D01*
X88900000Y-71802242D01*
X89135423Y-72154577D01*
X89610091Y-72471740D01*
X90028667Y-72555000D01*
X90311333Y-72555000D01*
X90729909Y-72471740D01*
X91204577Y-72154577D01*
X91440000Y-71802242D01*
X91675423Y-72154577D01*
X92150091Y-72471740D01*
X92568667Y-72555000D01*
X92851333Y-72555000D01*
X93269909Y-72471740D01*
X93744577Y-72154577D01*
X93980000Y-71802242D01*
X94215423Y-72154577D01*
X94690091Y-72471740D01*
X95108667Y-72555000D01*
X95391333Y-72555000D01*
X95809909Y-72471740D01*
X96284577Y-72154577D01*
X96520000Y-71802242D01*
X96755423Y-72154577D01*
X97230091Y-72471740D01*
X97648667Y-72555000D01*
X97931333Y-72555000D01*
X98349909Y-72471740D01*
X98824577Y-72154577D01*
X99060000Y-71802242D01*
X99295423Y-72154577D01*
X99770091Y-72471740D01*
X100188667Y-72555000D01*
X100471333Y-72555000D01*
X100889909Y-72471740D01*
X101364577Y-72154577D01*
X101600000Y-71802242D01*
X101835423Y-72154577D01*
X102310091Y-72471740D01*
X102728667Y-72555000D01*
X103011333Y-72555000D01*
X103429909Y-72471740D01*
X103904577Y-72154577D01*
X104140000Y-71802242D01*
X104375423Y-72154577D01*
X104850091Y-72471740D01*
X105268667Y-72555000D01*
X105551333Y-72555000D01*
X105969909Y-72471740D01*
X106444577Y-72154577D01*
X106680000Y-71802242D01*
X106915423Y-72154577D01*
X107390091Y-72471740D01*
X107808667Y-72555000D01*
X108091333Y-72555000D01*
X108509909Y-72471740D01*
X108984577Y-72154577D01*
X109220000Y-71802242D01*
X109455423Y-72154577D01*
X109930091Y-72471740D01*
X110348667Y-72555000D01*
X110631333Y-72555000D01*
X111049909Y-72471740D01*
X111524577Y-72154577D01*
X111760000Y-71802242D01*
X111995423Y-72154577D01*
X112470091Y-72471740D01*
X112888667Y-72555000D01*
X113171333Y-72555000D01*
X113589909Y-72471740D01*
X114064577Y-72154577D01*
X114300000Y-71802242D01*
X114535423Y-72154577D01*
X115010091Y-72471740D01*
X115428667Y-72555000D01*
X115711333Y-72555000D01*
X116129909Y-72471740D01*
X116604577Y-72154577D01*
X116840000Y-71802242D01*
X117075423Y-72154577D01*
X117550091Y-72471740D01*
X117968667Y-72555000D01*
X118251333Y-72555000D01*
X118669909Y-72471740D01*
X119144577Y-72154577D01*
X119461740Y-71679909D01*
X119573113Y-71120000D01*
X119461740Y-70560091D01*
X119144577Y-70085423D01*
X118669909Y-69768260D01*
X118251333Y-69685000D01*
X117968667Y-69685000D01*
X117550091Y-69768260D01*
X117075423Y-70085423D01*
X116840000Y-70437758D01*
X116604577Y-70085423D01*
X116129909Y-69768260D01*
X115711333Y-69685000D01*
X115428667Y-69685000D01*
X115010091Y-69768260D01*
X114535423Y-70085423D01*
X114300000Y-70437758D01*
X114064577Y-70085423D01*
X113589909Y-69768260D01*
X113171333Y-69685000D01*
X112888667Y-69685000D01*
X112470091Y-69768260D01*
X111995423Y-70085423D01*
X111760000Y-70437758D01*
X111524577Y-70085423D01*
X111049909Y-69768260D01*
X110631333Y-69685000D01*
X110348667Y-69685000D01*
X109930091Y-69768260D01*
X109455423Y-70085423D01*
X109220000Y-70437758D01*
X108984577Y-70085423D01*
X108509909Y-69768260D01*
X108091333Y-69685000D01*
X107808667Y-69685000D01*
X107390091Y-69768260D01*
X106915423Y-70085423D01*
X106680000Y-70437758D01*
X106444577Y-70085423D01*
X105969909Y-69768260D01*
X105551333Y-69685000D01*
X105268667Y-69685000D01*
X104850091Y-69768260D01*
X104375423Y-70085423D01*
X104140000Y-70437758D01*
X103904577Y-70085423D01*
X103429909Y-69768260D01*
X103011333Y-69685000D01*
X102728667Y-69685000D01*
X102310091Y-69768260D01*
X101835423Y-70085423D01*
X101600000Y-70437758D01*
X101364577Y-70085423D01*
X100889909Y-69768260D01*
X100471333Y-69685000D01*
X100188667Y-69685000D01*
X99770091Y-69768260D01*
X99295423Y-70085423D01*
X99060000Y-70437758D01*
X98824577Y-70085423D01*
X98349909Y-69768260D01*
X97931333Y-69685000D01*
X97648667Y-69685000D01*
X97230091Y-69768260D01*
X96755423Y-70085423D01*
X96520000Y-70437758D01*
X96284577Y-70085423D01*
X95809909Y-69768260D01*
X95391333Y-69685000D01*
X95108667Y-69685000D01*
X94690091Y-69768260D01*
X94215423Y-70085423D01*
X93980000Y-70437758D01*
X93744577Y-70085423D01*
X93269909Y-69768260D01*
X92851333Y-69685000D01*
X92568667Y-69685000D01*
X92150091Y-69768260D01*
X91675423Y-70085423D01*
X91440000Y-70437758D01*
X91204577Y-70085423D01*
X90729909Y-69768260D01*
X90311333Y-69685000D01*
X90028667Y-69685000D01*
X89610091Y-69768260D01*
X89135423Y-70085423D01*
X88900000Y-70437758D01*
X88664577Y-70085423D01*
X88189909Y-69768260D01*
X87771333Y-69685000D01*
X87488667Y-69685000D01*
X87070091Y-69768260D01*
X86595423Y-70085423D01*
X86360000Y-70437758D01*
X86124577Y-70085423D01*
X85850000Y-69901957D01*
X85850000Y-66354801D01*
X87402560Y-64802242D01*
X87402560Y-65620000D01*
X87451843Y-65867765D01*
X87592191Y-66077809D01*
X87802235Y-66218157D01*
X88050000Y-66267440D01*
X88251518Y-66267440D01*
X88297688Y-66336537D01*
X88352072Y-66417929D01*
X88415528Y-66460329D01*
X89749671Y-67794473D01*
X89792071Y-67857929D01*
X90043463Y-68025904D01*
X90265148Y-68070000D01*
X90265152Y-68070000D01*
X90340000Y-68084888D01*
X90414848Y-68070000D01*
X111685153Y-68070000D01*
X111760000Y-68084888D01*
X111834847Y-68070000D01*
X111834852Y-68070000D01*
X112056537Y-68025904D01*
X112307929Y-67857929D01*
X112350331Y-67794470D01*
X114784476Y-65360327D01*
X114847929Y-65317929D01*
X114890327Y-65254476D01*
X114890329Y-65254474D01*
X115015903Y-65066538D01*
X115015904Y-65066537D01*
X115060000Y-64844852D01*
X115060000Y-64844848D01*
X115074888Y-64770001D01*
X115060000Y-64695154D01*
X115060000Y-57241668D01*
X115428667Y-57315000D01*
X115711333Y-57315000D01*
X116129909Y-57231740D01*
X116604577Y-56914577D01*
X116840000Y-56562242D01*
X117075423Y-56914577D01*
X117550091Y-57231740D01*
X117968667Y-57315000D01*
X118251333Y-57315000D01*
X118433886Y-57278688D01*
X119890000Y-58734803D01*
X119890001Y-73143821D01*
X119579375Y-73351375D01*
X119380000Y-73649761D01*
X119180625Y-73351375D01*
X118689418Y-73023161D01*
X118256256Y-72937000D01*
X117963744Y-72937000D01*
X117530582Y-73023161D01*
X117039375Y-73351375D01*
X116840000Y-73649761D01*
X116640625Y-73351375D01*
X116149418Y-73023161D01*
X115716256Y-72937000D01*
X115423744Y-72937000D01*
X114990582Y-73023161D01*
X114499375Y-73351375D01*
X114300000Y-73649761D01*
X114100625Y-73351375D01*
X113609418Y-73023161D01*
X113176256Y-72937000D01*
X112883744Y-72937000D01*
X112450582Y-73023161D01*
X111959375Y-73351375D01*
X111760000Y-73649761D01*
X111560625Y-73351375D01*
X111069418Y-73023161D01*
X110636256Y-72937000D01*
X110343744Y-72937000D01*
X109910582Y-73023161D01*
X109419375Y-73351375D01*
X109407184Y-73369619D01*
X109398157Y-73324235D01*
X109257809Y-73114191D01*
X109047765Y-72973843D01*
X108800000Y-72924560D01*
X107100000Y-72924560D01*
X106852235Y-72973843D01*
X106642191Y-73114191D01*
X106501843Y-73324235D01*
X106452560Y-73572000D01*
X106452560Y-75272000D01*
X106495922Y-75490000D01*
X76910000Y-75490000D01*
X76910000Y-56229041D01*
X81158086Y-56229041D01*
X81397611Y-56735134D01*
X81812577Y-57111041D01*
X82200961Y-57271904D01*
X82423000Y-57149915D01*
X82423000Y-56007000D01*
X81279371Y-56007000D01*
X81158086Y-56229041D01*
X76910000Y-56229041D01*
X76910000Y-55530959D01*
X81158086Y-55530959D01*
X81279371Y-55753000D01*
X82423000Y-55753000D01*
X82423000Y-54610085D01*
X82200961Y-54488096D01*
X81812577Y-54648959D01*
X81397611Y-55024866D01*
X81158086Y-55530959D01*
X76910000Y-55530959D01*
X76910000Y-51510000D01*
X91637621Y-51510000D01*
X91311161Y-51998582D01*
G04 #@! TD*
M02*
