G04 #@! TF.GenerationSoftware,KiCad,Pcbnew,(5.0.2)-1*
G04 #@! TF.CreationDate,2019-02-02T18:03:16-06:00*
G04 #@! TF.ProjectId,CE-Header-Arduino-Nano,43452d48-6561-4646-9572-2d4172647569,1.0*
G04 #@! TF.SameCoordinates,Original*
G04 #@! TF.FileFunction,Copper,L1,Top*
G04 #@! TF.FilePolarity,Positive*
%FSLAX46Y46*%
G04 Gerber Fmt 4.6, Leading zero omitted, Abs format (unit mm)*
G04 Created by KiCad (PCBNEW (5.0.2)-1) date 2/2/2019 6:03:16 PM*
%MOMM*%
%LPD*%
G01*
G04 APERTURE LIST*
G04 #@! TA.AperFunction,ComponentPad*
%ADD10R,1.600000X1.600000*%
G04 #@! TD*
G04 #@! TA.AperFunction,ComponentPad*
%ADD11O,1.600000X1.600000*%
G04 #@! TD*
G04 #@! TA.AperFunction,BGAPad,CuDef*
%ADD12C,1.500000*%
G04 #@! TD*
G04 #@! TA.AperFunction,ComponentPad*
%ADD13R,1.700000X1.700000*%
G04 #@! TD*
G04 #@! TA.AperFunction,ComponentPad*
%ADD14O,1.700000X1.700000*%
G04 #@! TD*
G04 #@! TA.AperFunction,Conductor*
%ADD15C,0.250000*%
G04 #@! TD*
G04 #@! TA.AperFunction,Conductor*
%ADD16C,0.254000*%
G04 #@! TD*
G04 APERTURE END LIST*
D10*
G04 #@! TO.P,A1,1*
G04 #@! TO.N,/GPIO_D1*
X82550000Y-71120000D03*
D11*
G04 #@! TO.P,A1,17*
G04 #@! TO.N,Net-(A1-Pad17)*
X115570000Y-55880000D03*
G04 #@! TO.P,A1,2*
G04 #@! TO.N,/GPIO_D0*
X85090000Y-71120000D03*
G04 #@! TO.P,A1,18*
G04 #@! TO.N,/PWR_IO*
X113030000Y-55880000D03*
G04 #@! TO.P,A1,3*
G04 #@! TO.N,Net-(A1-Pad3)*
X87630000Y-71120000D03*
G04 #@! TO.P,A1,19*
G04 #@! TO.N,/GPIO_A0*
X110490000Y-55880000D03*
G04 #@! TO.P,A1,4*
G04 #@! TO.N,GND*
X90170000Y-71120000D03*
G04 #@! TO.P,A1,20*
G04 #@! TO.N,/GPIO_A1*
X107950000Y-55880000D03*
G04 #@! TO.P,A1,5*
G04 #@! TO.N,/GPIO_D2*
X92710000Y-71120000D03*
G04 #@! TO.P,A1,21*
G04 #@! TO.N,/GPIO_A2*
X105410000Y-55880000D03*
G04 #@! TO.P,A1,6*
G04 #@! TO.N,/GPIO_D3*
X95250000Y-71120000D03*
G04 #@! TO.P,A1,22*
G04 #@! TO.N,/GPIO_A3*
X102870000Y-55880000D03*
G04 #@! TO.P,A1,7*
G04 #@! TO.N,/GPIO_D4*
X97790000Y-71120000D03*
G04 #@! TO.P,A1,23*
G04 #@! TO.N,Net-(A1-Pad23)*
X100330000Y-55880000D03*
G04 #@! TO.P,A1,8*
G04 #@! TO.N,/GPIO_D5*
X100330000Y-71120000D03*
G04 #@! TO.P,A1,24*
G04 #@! TO.N,Net-(A1-Pad24)*
X97790000Y-55880000D03*
G04 #@! TO.P,A1,9*
G04 #@! TO.N,/GPIO_D6*
X102870000Y-71120000D03*
G04 #@! TO.P,A1,25*
G04 #@! TO.N,Net-(A1-Pad25)*
X95250000Y-55880000D03*
G04 #@! TO.P,A1,10*
G04 #@! TO.N,/GPIO_D7*
X105410000Y-71120000D03*
G04 #@! TO.P,A1,26*
G04 #@! TO.N,Net-(A1-Pad26)*
X92710000Y-55880000D03*
G04 #@! TO.P,A1,11*
G04 #@! TO.N,Net-(A1-Pad11)*
X107950000Y-71120000D03*
G04 #@! TO.P,A1,27*
G04 #@! TO.N,Net-(A1-Pad27)*
X90170000Y-55880000D03*
G04 #@! TO.P,A1,12*
G04 #@! TO.N,Net-(A1-Pad12)*
X110490000Y-71120000D03*
G04 #@! TO.P,A1,28*
G04 #@! TO.N,N/C*
X87630000Y-55880000D03*
G04 #@! TO.P,A1,13*
G04 #@! TO.N,Net-(A1-Pad13)*
X113030000Y-71120000D03*
G04 #@! TO.P,A1,29*
G04 #@! TO.N,GND*
X85090000Y-55880000D03*
G04 #@! TO.P,A1,14*
G04 #@! TO.N,Net-(A1-Pad14)*
X115570000Y-71120000D03*
G04 #@! TO.P,A1,30*
G04 #@! TO.N,/PWR_CORE*
X82550000Y-55880000D03*
G04 #@! TO.P,A1,15*
G04 #@! TO.N,Net-(A1-Pad15)*
X118110000Y-71120000D03*
G04 #@! TO.P,A1,16*
G04 #@! TO.N,Net-(A1-Pad16)*
X118110000Y-55880000D03*
G04 #@! TD*
D12*
G04 #@! TO.P,TP3,1*
G04 #@! TO.N,Net-(A1-Pad3)*
X87630000Y-74422000D03*
G04 #@! TD*
D13*
G04 #@! TO.P,J1,1*
G04 #@! TO.N,/PWR_IO*
X88900000Y-64770000D03*
D14*
G04 #@! TO.P,J1,2*
G04 #@! TO.N,N/C*
X88900000Y-62230000D03*
G04 #@! TO.P,J1,3*
G04 #@! TO.N,/GPIO_D0*
X91440000Y-64770000D03*
G04 #@! TO.P,J1,4*
G04 #@! TO.N,/GPIO_D1*
X91440000Y-62230000D03*
G04 #@! TO.P,J1,5*
G04 #@! TO.N,/GPIO_D2*
X93980000Y-64770000D03*
G04 #@! TO.P,J1,6*
G04 #@! TO.N,/GPIO_D3*
X93980000Y-62230000D03*
G04 #@! TO.P,J1,7*
G04 #@! TO.N,/GPIO_D4*
X96520000Y-64770000D03*
G04 #@! TO.P,J1,8*
G04 #@! TO.N,/GPIO_D5*
X96520000Y-62230000D03*
G04 #@! TO.P,J1,9*
G04 #@! TO.N,N/C*
X99060000Y-64770000D03*
G04 #@! TO.P,J1,10*
G04 #@! TO.N,GND*
X99060000Y-62230000D03*
G04 #@! TO.P,J1,11*
G04 #@! TO.N,N/C*
X101600000Y-64770000D03*
G04 #@! TO.P,J1,12*
G04 #@! TO.N,/PWR_CORE*
X101600000Y-62230000D03*
G04 #@! TO.P,J1,13*
G04 #@! TO.N,/GPIO_D6*
X104140000Y-64770000D03*
G04 #@! TO.P,J1,14*
G04 #@! TO.N,/GPIO_D7*
X104140000Y-62230000D03*
G04 #@! TO.P,J1,15*
G04 #@! TO.N,/GPIO_A0*
X106680000Y-64770000D03*
G04 #@! TO.P,J1,16*
G04 #@! TO.N,/GPIO_A1*
X106680000Y-62230000D03*
G04 #@! TO.P,J1,17*
G04 #@! TO.N,/GPIO_A2*
X109220000Y-64770000D03*
G04 #@! TO.P,J1,18*
G04 #@! TO.N,/GPIO_A3*
X109220000Y-62230000D03*
G04 #@! TO.P,J1,19*
G04 #@! TO.N,GND*
X111760000Y-64770000D03*
G04 #@! TO.P,J1,20*
G04 #@! TO.N,N/C*
X111760000Y-62230000D03*
G04 #@! TD*
D13*
G04 #@! TO.P,J2,1*
G04 #@! TO.N,GND*
X110490000Y-52578000D03*
D14*
G04 #@! TO.P,J2,2*
G04 #@! TO.N,Net-(A1-Pad27)*
X113030000Y-52578000D03*
G04 #@! TO.P,J2,3*
G04 #@! TO.N,Net-(A1-Pad17)*
X115570000Y-52578000D03*
G04 #@! TD*
D13*
G04 #@! TO.P,J3,1*
G04 #@! TO.N,Net-(A1-Pad11)*
X107950000Y-74422000D03*
D14*
G04 #@! TO.P,J3,2*
G04 #@! TO.N,Net-(A1-Pad12)*
X110490000Y-74422000D03*
G04 #@! TO.P,J3,3*
G04 #@! TO.N,Net-(A1-Pad13)*
X113030000Y-74422000D03*
G04 #@! TO.P,J3,4*
G04 #@! TO.N,Net-(A1-Pad14)*
X115570000Y-74422000D03*
G04 #@! TO.P,J3,5*
G04 #@! TO.N,Net-(A1-Pad15)*
X118110000Y-74422000D03*
G04 #@! TO.P,J3,6*
G04 #@! TO.N,Net-(A1-Pad16)*
X120650000Y-74422000D03*
G04 #@! TD*
D13*
G04 #@! TO.P,J4,1*
G04 #@! TO.N,Net-(A1-Pad23)*
X100330000Y-52578000D03*
D14*
G04 #@! TO.P,J4,2*
G04 #@! TO.N,Net-(A1-Pad24)*
X97790000Y-52578000D03*
G04 #@! TO.P,J4,3*
G04 #@! TO.N,Net-(A1-Pad25)*
X95250000Y-52578000D03*
G04 #@! TO.P,J4,4*
G04 #@! TO.N,Net-(A1-Pad26)*
X92710000Y-52578000D03*
G04 #@! TD*
D15*
G04 #@! TO.N,Net-(A1-Pad3)*
X87630000Y-71120000D02*
X87630000Y-74422000D01*
G04 #@! TO.N,/GPIO_D2*
X93980000Y-69850000D02*
X92710000Y-71120000D01*
X93980000Y-64770000D02*
X93980000Y-69850000D01*
G04 #@! TO.N,/GPIO_D3*
X95250000Y-63500000D02*
X95250000Y-71120000D01*
X93980000Y-62230000D02*
X95250000Y-63500000D01*
G04 #@! TO.N,/GPIO_D4*
X96520000Y-69850000D02*
X97790000Y-71120000D01*
X96520000Y-64770000D02*
X96520000Y-69850000D01*
G04 #@! TO.N,Net-(A1-Pad23)*
X100330000Y-52578000D02*
X100330000Y-55880000D01*
G04 #@! TO.N,/GPIO_D5*
X99530001Y-70320001D02*
X100330000Y-71120000D01*
X97884999Y-68674999D02*
X99530001Y-70320001D01*
X97884999Y-63594999D02*
X97884999Y-68674999D01*
X96520000Y-62230000D02*
X97884999Y-63594999D01*
G04 #@! TO.N,Net-(A1-Pad24)*
X97790000Y-52578000D02*
X97790000Y-55880000D01*
G04 #@! TO.N,/GPIO_D6*
X104140000Y-69850000D02*
X102870000Y-71120000D01*
X104140000Y-64770000D02*
X104140000Y-69850000D01*
G04 #@! TO.N,Net-(A1-Pad25)*
X95250000Y-52578000D02*
X95250000Y-55880000D01*
G04 #@! TO.N,/GPIO_D7*
X105410000Y-63500000D02*
X105410000Y-71120000D01*
X104140000Y-62230000D02*
X105410000Y-63500000D01*
G04 #@! TO.N,Net-(A1-Pad26)*
X92710000Y-52578000D02*
X92710000Y-55880000D01*
G04 #@! TO.N,Net-(A1-Pad11)*
X107950000Y-72251370D02*
X107950000Y-74422000D01*
X107950000Y-71120000D02*
X107950000Y-72251370D01*
G04 #@! TO.N,Net-(A1-Pad12)*
X110490000Y-72251370D02*
X110490000Y-74422000D01*
X110490000Y-71120000D02*
X110490000Y-72251370D01*
G04 #@! TO.N,Net-(A1-Pad13)*
X113030000Y-72251370D02*
X113030000Y-74422000D01*
X113030000Y-71120000D02*
X113030000Y-72251370D01*
G04 #@! TO.N,Net-(A1-Pad14)*
X115570000Y-72251370D02*
X115570000Y-74422000D01*
X115570000Y-71120000D02*
X115570000Y-72251370D01*
G04 #@! TO.N,Net-(A1-Pad15)*
X118110000Y-72251370D02*
X118110000Y-74422000D01*
X118110000Y-71120000D02*
X118110000Y-72251370D01*
G04 #@! TD*
D16*
G04 #@! TO.N,GND*
G36*
X91311161Y-51998582D02*
X91195908Y-52578000D01*
X91311161Y-53157418D01*
X91639375Y-53648625D01*
X91950000Y-53856178D01*
X91950001Y-54661956D01*
X91675423Y-54845423D01*
X91440000Y-55197758D01*
X91204577Y-54845423D01*
X90729909Y-54528260D01*
X90311333Y-54445000D01*
X90028667Y-54445000D01*
X89610091Y-54528260D01*
X89135423Y-54845423D01*
X88900000Y-55197758D01*
X88664577Y-54845423D01*
X88189909Y-54528260D01*
X87771333Y-54445000D01*
X87488667Y-54445000D01*
X87070091Y-54528260D01*
X86595423Y-54845423D01*
X86339053Y-55229108D01*
X86242389Y-55024866D01*
X85827423Y-54648959D01*
X85439039Y-54488096D01*
X85217000Y-54610085D01*
X85217000Y-55753000D01*
X85237000Y-55753000D01*
X85237000Y-56007000D01*
X85217000Y-56007000D01*
X85217000Y-57149915D01*
X85439039Y-57271904D01*
X85827423Y-57111041D01*
X86242389Y-56735134D01*
X86339053Y-56530892D01*
X86595423Y-56914577D01*
X87070091Y-57231740D01*
X87488667Y-57315000D01*
X87771333Y-57315000D01*
X88189909Y-57231740D01*
X88664577Y-56914577D01*
X88900000Y-56562242D01*
X89135423Y-56914577D01*
X89610091Y-57231740D01*
X90028667Y-57315000D01*
X90311333Y-57315000D01*
X90729909Y-57231740D01*
X91204577Y-56914577D01*
X91440000Y-56562242D01*
X91675423Y-56914577D01*
X92150091Y-57231740D01*
X92568667Y-57315000D01*
X92851333Y-57315000D01*
X93269909Y-57231740D01*
X93744577Y-56914577D01*
X93980000Y-56562242D01*
X94215423Y-56914577D01*
X94690091Y-57231740D01*
X95108667Y-57315000D01*
X95391333Y-57315000D01*
X95809909Y-57231740D01*
X96284577Y-56914577D01*
X96520000Y-56562242D01*
X96755423Y-56914577D01*
X97230091Y-57231740D01*
X97648667Y-57315000D01*
X97931333Y-57315000D01*
X98349909Y-57231740D01*
X98824577Y-56914577D01*
X99060000Y-56562242D01*
X99295423Y-56914577D01*
X99770091Y-57231740D01*
X100188667Y-57315000D01*
X100471333Y-57315000D01*
X100889909Y-57231740D01*
X101364577Y-56914577D01*
X101600000Y-56562242D01*
X101835423Y-56914577D01*
X102310091Y-57231740D01*
X102728667Y-57315000D01*
X103011333Y-57315000D01*
X103429909Y-57231740D01*
X103904577Y-56914577D01*
X104140000Y-56562242D01*
X104375423Y-56914577D01*
X104850091Y-57231740D01*
X105268667Y-57315000D01*
X105551333Y-57315000D01*
X105969909Y-57231740D01*
X106444577Y-56914577D01*
X106680000Y-56562242D01*
X106915423Y-56914577D01*
X107390091Y-57231740D01*
X107808667Y-57315000D01*
X108091333Y-57315000D01*
X108509909Y-57231740D01*
X108984577Y-56914577D01*
X109220000Y-56562242D01*
X109455423Y-56914577D01*
X109930091Y-57231740D01*
X110348667Y-57315000D01*
X110631333Y-57315000D01*
X111049909Y-57231740D01*
X111524577Y-56914577D01*
X111760000Y-56562242D01*
X111995423Y-56914577D01*
X112470091Y-57231740D01*
X112888667Y-57315000D01*
X113171333Y-57315000D01*
X113589909Y-57231740D01*
X114064577Y-56914577D01*
X114300000Y-56562242D01*
X114535423Y-56914577D01*
X115010091Y-57231740D01*
X115428667Y-57315000D01*
X115711333Y-57315000D01*
X116129909Y-57231740D01*
X116604577Y-56914577D01*
X116840000Y-56562242D01*
X117075423Y-56914577D01*
X117550091Y-57231740D01*
X117968667Y-57315000D01*
X118251333Y-57315000D01*
X118669909Y-57231740D01*
X119144577Y-56914577D01*
X119461740Y-56439909D01*
X119573113Y-55880000D01*
X119461740Y-55320091D01*
X119144577Y-54845423D01*
X118669909Y-54528260D01*
X118251333Y-54445000D01*
X117968667Y-54445000D01*
X117550091Y-54528260D01*
X117075423Y-54845423D01*
X116840000Y-55197758D01*
X116604577Y-54845423D01*
X116129909Y-54528260D01*
X115711333Y-54445000D01*
X115428667Y-54445000D01*
X115010091Y-54528260D01*
X114535423Y-54845423D01*
X114300000Y-55197758D01*
X114064577Y-54845423D01*
X113589909Y-54528260D01*
X113171333Y-54445000D01*
X112888667Y-54445000D01*
X112470091Y-54528260D01*
X111995423Y-54845423D01*
X111760000Y-55197758D01*
X111524577Y-54845423D01*
X111049909Y-54528260D01*
X110631333Y-54445000D01*
X110348667Y-54445000D01*
X109930091Y-54528260D01*
X109455423Y-54845423D01*
X109220000Y-55197758D01*
X108984577Y-54845423D01*
X108509909Y-54528260D01*
X108091333Y-54445000D01*
X107808667Y-54445000D01*
X107390091Y-54528260D01*
X106915423Y-54845423D01*
X106680000Y-55197758D01*
X106444577Y-54845423D01*
X105969909Y-54528260D01*
X105551333Y-54445000D01*
X105268667Y-54445000D01*
X104850091Y-54528260D01*
X104375423Y-54845423D01*
X104140000Y-55197758D01*
X103904577Y-54845423D01*
X103429909Y-54528260D01*
X103011333Y-54445000D01*
X102728667Y-54445000D01*
X102310091Y-54528260D01*
X101835423Y-54845423D01*
X101600000Y-55197758D01*
X101364577Y-54845423D01*
X101090000Y-54661957D01*
X101090000Y-54075440D01*
X101180000Y-54075440D01*
X101427765Y-54026157D01*
X101637809Y-53885809D01*
X101778157Y-53675765D01*
X101827440Y-53428000D01*
X101827440Y-52863750D01*
X109005000Y-52863750D01*
X109005000Y-53554309D01*
X109101673Y-53787698D01*
X109280301Y-53966327D01*
X109513690Y-54063000D01*
X110204250Y-54063000D01*
X110363000Y-53904250D01*
X110363000Y-52705000D01*
X109163750Y-52705000D01*
X109005000Y-52863750D01*
X101827440Y-52863750D01*
X101827440Y-51728000D01*
X101784078Y-51510000D01*
X109042980Y-51510000D01*
X109005000Y-51601691D01*
X109005000Y-52292250D01*
X109163750Y-52451000D01*
X110363000Y-52451000D01*
X110363000Y-52431000D01*
X110617000Y-52431000D01*
X110617000Y-52451000D01*
X110637000Y-52451000D01*
X110637000Y-52705000D01*
X110617000Y-52705000D01*
X110617000Y-53904250D01*
X110775750Y-54063000D01*
X111466310Y-54063000D01*
X111699699Y-53966327D01*
X111878327Y-53787698D01*
X111944904Y-53626967D01*
X111959375Y-53648625D01*
X112450582Y-53976839D01*
X112883744Y-54063000D01*
X113176256Y-54063000D01*
X113609418Y-53976839D01*
X114100625Y-53648625D01*
X114300000Y-53350239D01*
X114499375Y-53648625D01*
X114990582Y-53976839D01*
X115423744Y-54063000D01*
X115716256Y-54063000D01*
X116149418Y-53976839D01*
X116640625Y-53648625D01*
X116968839Y-53157418D01*
X117084092Y-52578000D01*
X116968839Y-51998582D01*
X116642379Y-51510000D01*
X126290000Y-51510000D01*
X126290001Y-75490000D01*
X121722379Y-75490000D01*
X122048839Y-75001418D01*
X122164092Y-74422000D01*
X122048839Y-73842582D01*
X121720625Y-73351375D01*
X121229418Y-73023161D01*
X120796256Y-72937000D01*
X120503744Y-72937000D01*
X120070582Y-73023161D01*
X119579375Y-73351375D01*
X119380000Y-73649761D01*
X119180625Y-73351375D01*
X118870000Y-73143822D01*
X118870000Y-72338043D01*
X119144577Y-72154577D01*
X119461740Y-71679909D01*
X119573113Y-71120000D01*
X119461740Y-70560091D01*
X119144577Y-70085423D01*
X118669909Y-69768260D01*
X118251333Y-69685000D01*
X117968667Y-69685000D01*
X117550091Y-69768260D01*
X117075423Y-70085423D01*
X116840000Y-70437758D01*
X116604577Y-70085423D01*
X116129909Y-69768260D01*
X115711333Y-69685000D01*
X115428667Y-69685000D01*
X115010091Y-69768260D01*
X114535423Y-70085423D01*
X114300000Y-70437758D01*
X114064577Y-70085423D01*
X113589909Y-69768260D01*
X113171333Y-69685000D01*
X112888667Y-69685000D01*
X112470091Y-69768260D01*
X111995423Y-70085423D01*
X111760000Y-70437758D01*
X111524577Y-70085423D01*
X111049909Y-69768260D01*
X110631333Y-69685000D01*
X110348667Y-69685000D01*
X109930091Y-69768260D01*
X109455423Y-70085423D01*
X109220000Y-70437758D01*
X108984577Y-70085423D01*
X108509909Y-69768260D01*
X108091333Y-69685000D01*
X107808667Y-69685000D01*
X107390091Y-69768260D01*
X106915423Y-70085423D01*
X106680000Y-70437758D01*
X106444577Y-70085423D01*
X106170000Y-69901957D01*
X106170000Y-66182647D01*
X106533744Y-66255000D01*
X106826256Y-66255000D01*
X107259418Y-66168839D01*
X107750625Y-65840625D01*
X107950000Y-65542239D01*
X108149375Y-65840625D01*
X108640582Y-66168839D01*
X109073744Y-66255000D01*
X109366256Y-66255000D01*
X109799418Y-66168839D01*
X110290625Y-65840625D01*
X110503843Y-65521522D01*
X110564817Y-65651358D01*
X110993076Y-66041645D01*
X111403110Y-66211476D01*
X111633000Y-66090155D01*
X111633000Y-64897000D01*
X111887000Y-64897000D01*
X111887000Y-66090155D01*
X112116890Y-66211476D01*
X112526924Y-66041645D01*
X112955183Y-65651358D01*
X113201486Y-65126892D01*
X113080819Y-64897000D01*
X111887000Y-64897000D01*
X111633000Y-64897000D01*
X111613000Y-64897000D01*
X111613000Y-64643000D01*
X111633000Y-64643000D01*
X111633000Y-64623000D01*
X111887000Y-64623000D01*
X111887000Y-64643000D01*
X113080819Y-64643000D01*
X113201486Y-64413108D01*
X112955183Y-63888642D01*
X112530214Y-63501353D01*
X112830625Y-63300625D01*
X113158839Y-62809418D01*
X113274092Y-62230000D01*
X113158839Y-61650582D01*
X112830625Y-61159375D01*
X112339418Y-60831161D01*
X111906256Y-60745000D01*
X111613744Y-60745000D01*
X111180582Y-60831161D01*
X110689375Y-61159375D01*
X110490000Y-61457761D01*
X110290625Y-61159375D01*
X109799418Y-60831161D01*
X109366256Y-60745000D01*
X109073744Y-60745000D01*
X108640582Y-60831161D01*
X108149375Y-61159375D01*
X107950000Y-61457761D01*
X107750625Y-61159375D01*
X107259418Y-60831161D01*
X106826256Y-60745000D01*
X106533744Y-60745000D01*
X106100582Y-60831161D01*
X105609375Y-61159375D01*
X105410000Y-61457761D01*
X105210625Y-61159375D01*
X104719418Y-60831161D01*
X104286256Y-60745000D01*
X103993744Y-60745000D01*
X103560582Y-60831161D01*
X103069375Y-61159375D01*
X102870000Y-61457761D01*
X102670625Y-61159375D01*
X102179418Y-60831161D01*
X101746256Y-60745000D01*
X101453744Y-60745000D01*
X101020582Y-60831161D01*
X100529375Y-61159375D01*
X100316157Y-61478478D01*
X100255183Y-61348642D01*
X99826924Y-60958355D01*
X99416890Y-60788524D01*
X99187000Y-60909845D01*
X99187000Y-62103000D01*
X99207000Y-62103000D01*
X99207000Y-62357000D01*
X99187000Y-62357000D01*
X99187000Y-62377000D01*
X98933000Y-62377000D01*
X98933000Y-62357000D01*
X98913000Y-62357000D01*
X98913000Y-62103000D01*
X98933000Y-62103000D01*
X98933000Y-60909845D01*
X98703110Y-60788524D01*
X98293076Y-60958355D01*
X97864817Y-61348642D01*
X97803843Y-61478478D01*
X97590625Y-61159375D01*
X97099418Y-60831161D01*
X96666256Y-60745000D01*
X96373744Y-60745000D01*
X95940582Y-60831161D01*
X95449375Y-61159375D01*
X95250000Y-61457761D01*
X95050625Y-61159375D01*
X94559418Y-60831161D01*
X94126256Y-60745000D01*
X93833744Y-60745000D01*
X93400582Y-60831161D01*
X92909375Y-61159375D01*
X92710000Y-61457761D01*
X92510625Y-61159375D01*
X92019418Y-60831161D01*
X91586256Y-60745000D01*
X91293744Y-60745000D01*
X90860582Y-60831161D01*
X90369375Y-61159375D01*
X90170000Y-61457761D01*
X89970625Y-61159375D01*
X89479418Y-60831161D01*
X89046256Y-60745000D01*
X88753744Y-60745000D01*
X88320582Y-60831161D01*
X87829375Y-61159375D01*
X87501161Y-61650582D01*
X87385908Y-62230000D01*
X87501161Y-62809418D01*
X87829375Y-63300625D01*
X87847619Y-63312816D01*
X87802235Y-63321843D01*
X87592191Y-63462191D01*
X87451843Y-63672235D01*
X87402560Y-63920000D01*
X87402560Y-65620000D01*
X87451843Y-65867765D01*
X87592191Y-66077809D01*
X87802235Y-66218157D01*
X88050000Y-66267440D01*
X89750000Y-66267440D01*
X89997765Y-66218157D01*
X90207809Y-66077809D01*
X90348157Y-65867765D01*
X90357184Y-65822381D01*
X90369375Y-65840625D01*
X90860582Y-66168839D01*
X91293744Y-66255000D01*
X91586256Y-66255000D01*
X92019418Y-66168839D01*
X92510625Y-65840625D01*
X92710000Y-65542239D01*
X92909375Y-65840625D01*
X93220000Y-66048178D01*
X93220001Y-69535197D01*
X93033886Y-69721312D01*
X92851333Y-69685000D01*
X92568667Y-69685000D01*
X92150091Y-69768260D01*
X91675423Y-70085423D01*
X91419053Y-70469108D01*
X91322389Y-70264866D01*
X90907423Y-69888959D01*
X90519039Y-69728096D01*
X90297000Y-69850085D01*
X90297000Y-70993000D01*
X90317000Y-70993000D01*
X90317000Y-71247000D01*
X90297000Y-71247000D01*
X90297000Y-72389915D01*
X90519039Y-72511904D01*
X90907423Y-72351041D01*
X91322389Y-71975134D01*
X91419053Y-71770892D01*
X91675423Y-72154577D01*
X92150091Y-72471740D01*
X92568667Y-72555000D01*
X92851333Y-72555000D01*
X93269909Y-72471740D01*
X93744577Y-72154577D01*
X93980000Y-71802242D01*
X94215423Y-72154577D01*
X94690091Y-72471740D01*
X95108667Y-72555000D01*
X95391333Y-72555000D01*
X95809909Y-72471740D01*
X96284577Y-72154577D01*
X96520000Y-71802242D01*
X96755423Y-72154577D01*
X97230091Y-72471740D01*
X97648667Y-72555000D01*
X97931333Y-72555000D01*
X98349909Y-72471740D01*
X98824577Y-72154577D01*
X99060000Y-71802242D01*
X99295423Y-72154577D01*
X99770091Y-72471740D01*
X100188667Y-72555000D01*
X100471333Y-72555000D01*
X100889909Y-72471740D01*
X101364577Y-72154577D01*
X101600000Y-71802242D01*
X101835423Y-72154577D01*
X102310091Y-72471740D01*
X102728667Y-72555000D01*
X103011333Y-72555000D01*
X103429909Y-72471740D01*
X103904577Y-72154577D01*
X104140000Y-71802242D01*
X104375423Y-72154577D01*
X104850091Y-72471740D01*
X105268667Y-72555000D01*
X105551333Y-72555000D01*
X105969909Y-72471740D01*
X106444577Y-72154577D01*
X106680000Y-71802242D01*
X106915423Y-72154577D01*
X107190000Y-72338044D01*
X107190000Y-72924560D01*
X107100000Y-72924560D01*
X106852235Y-72973843D01*
X106642191Y-73114191D01*
X106501843Y-73324235D01*
X106452560Y-73572000D01*
X106452560Y-75272000D01*
X106495922Y-75490000D01*
X88520687Y-75490000D01*
X88804147Y-75206540D01*
X89015000Y-74697494D01*
X89015000Y-74146506D01*
X88804147Y-73637460D01*
X88414540Y-73247853D01*
X88390000Y-73237688D01*
X88390000Y-72338043D01*
X88664577Y-72154577D01*
X88920947Y-71770892D01*
X89017611Y-71975134D01*
X89432577Y-72351041D01*
X89820961Y-72511904D01*
X90043000Y-72389915D01*
X90043000Y-71247000D01*
X90023000Y-71247000D01*
X90023000Y-70993000D01*
X90043000Y-70993000D01*
X90043000Y-69850085D01*
X89820961Y-69728096D01*
X89432577Y-69888959D01*
X89017611Y-70264866D01*
X88920947Y-70469108D01*
X88664577Y-70085423D01*
X88189909Y-69768260D01*
X87771333Y-69685000D01*
X87488667Y-69685000D01*
X87070091Y-69768260D01*
X86595423Y-70085423D01*
X86360000Y-70437758D01*
X86124577Y-70085423D01*
X85649909Y-69768260D01*
X85231333Y-69685000D01*
X84948667Y-69685000D01*
X84530091Y-69768260D01*
X84055423Y-70085423D01*
X83974785Y-70206106D01*
X83948157Y-70072235D01*
X83807809Y-69862191D01*
X83597765Y-69721843D01*
X83350000Y-69672560D01*
X81750000Y-69672560D01*
X81502235Y-69721843D01*
X81292191Y-69862191D01*
X81151843Y-70072235D01*
X81102560Y-70320000D01*
X81102560Y-71920000D01*
X81151843Y-72167765D01*
X81292191Y-72377809D01*
X81502235Y-72518157D01*
X81750000Y-72567440D01*
X83350000Y-72567440D01*
X83597765Y-72518157D01*
X83807809Y-72377809D01*
X83948157Y-72167765D01*
X83974785Y-72033894D01*
X84055423Y-72154577D01*
X84530091Y-72471740D01*
X84948667Y-72555000D01*
X85231333Y-72555000D01*
X85649909Y-72471740D01*
X86124577Y-72154577D01*
X86360000Y-71802242D01*
X86595423Y-72154577D01*
X86870000Y-72338044D01*
X86870001Y-73237688D01*
X86845460Y-73247853D01*
X86455853Y-73637460D01*
X86245000Y-74146506D01*
X86245000Y-74697494D01*
X86455853Y-75206540D01*
X86739313Y-75490000D01*
X76910000Y-75490000D01*
X76910000Y-55880000D01*
X81086887Y-55880000D01*
X81198260Y-56439909D01*
X81515423Y-56914577D01*
X81990091Y-57231740D01*
X82408667Y-57315000D01*
X82691333Y-57315000D01*
X83109909Y-57231740D01*
X83584577Y-56914577D01*
X83840947Y-56530892D01*
X83937611Y-56735134D01*
X84352577Y-57111041D01*
X84740961Y-57271904D01*
X84963000Y-57149915D01*
X84963000Y-56007000D01*
X84943000Y-56007000D01*
X84943000Y-55753000D01*
X84963000Y-55753000D01*
X84963000Y-54610085D01*
X84740961Y-54488096D01*
X84352577Y-54648959D01*
X83937611Y-55024866D01*
X83840947Y-55229108D01*
X83584577Y-54845423D01*
X83109909Y-54528260D01*
X82691333Y-54445000D01*
X82408667Y-54445000D01*
X81990091Y-54528260D01*
X81515423Y-54845423D01*
X81198260Y-55320091D01*
X81086887Y-55880000D01*
X76910000Y-55880000D01*
X76910000Y-51510000D01*
X91637621Y-51510000D01*
X91311161Y-51998582D01*
X91311161Y-51998582D01*
G37*
X91311161Y-51998582D02*
X91195908Y-52578000D01*
X91311161Y-53157418D01*
X91639375Y-53648625D01*
X91950000Y-53856178D01*
X91950001Y-54661956D01*
X91675423Y-54845423D01*
X91440000Y-55197758D01*
X91204577Y-54845423D01*
X90729909Y-54528260D01*
X90311333Y-54445000D01*
X90028667Y-54445000D01*
X89610091Y-54528260D01*
X89135423Y-54845423D01*
X88900000Y-55197758D01*
X88664577Y-54845423D01*
X88189909Y-54528260D01*
X87771333Y-54445000D01*
X87488667Y-54445000D01*
X87070091Y-54528260D01*
X86595423Y-54845423D01*
X86339053Y-55229108D01*
X86242389Y-55024866D01*
X85827423Y-54648959D01*
X85439039Y-54488096D01*
X85217000Y-54610085D01*
X85217000Y-55753000D01*
X85237000Y-55753000D01*
X85237000Y-56007000D01*
X85217000Y-56007000D01*
X85217000Y-57149915D01*
X85439039Y-57271904D01*
X85827423Y-57111041D01*
X86242389Y-56735134D01*
X86339053Y-56530892D01*
X86595423Y-56914577D01*
X87070091Y-57231740D01*
X87488667Y-57315000D01*
X87771333Y-57315000D01*
X88189909Y-57231740D01*
X88664577Y-56914577D01*
X88900000Y-56562242D01*
X89135423Y-56914577D01*
X89610091Y-57231740D01*
X90028667Y-57315000D01*
X90311333Y-57315000D01*
X90729909Y-57231740D01*
X91204577Y-56914577D01*
X91440000Y-56562242D01*
X91675423Y-56914577D01*
X92150091Y-57231740D01*
X92568667Y-57315000D01*
X92851333Y-57315000D01*
X93269909Y-57231740D01*
X93744577Y-56914577D01*
X93980000Y-56562242D01*
X94215423Y-56914577D01*
X94690091Y-57231740D01*
X95108667Y-57315000D01*
X95391333Y-57315000D01*
X95809909Y-57231740D01*
X96284577Y-56914577D01*
X96520000Y-56562242D01*
X96755423Y-56914577D01*
X97230091Y-57231740D01*
X97648667Y-57315000D01*
X97931333Y-57315000D01*
X98349909Y-57231740D01*
X98824577Y-56914577D01*
X99060000Y-56562242D01*
X99295423Y-56914577D01*
X99770091Y-57231740D01*
X100188667Y-57315000D01*
X100471333Y-57315000D01*
X100889909Y-57231740D01*
X101364577Y-56914577D01*
X101600000Y-56562242D01*
X101835423Y-56914577D01*
X102310091Y-57231740D01*
X102728667Y-57315000D01*
X103011333Y-57315000D01*
X103429909Y-57231740D01*
X103904577Y-56914577D01*
X104140000Y-56562242D01*
X104375423Y-56914577D01*
X104850091Y-57231740D01*
X105268667Y-57315000D01*
X105551333Y-57315000D01*
X105969909Y-57231740D01*
X106444577Y-56914577D01*
X106680000Y-56562242D01*
X106915423Y-56914577D01*
X107390091Y-57231740D01*
X107808667Y-57315000D01*
X108091333Y-57315000D01*
X108509909Y-57231740D01*
X108984577Y-56914577D01*
X109220000Y-56562242D01*
X109455423Y-56914577D01*
X109930091Y-57231740D01*
X110348667Y-57315000D01*
X110631333Y-57315000D01*
X111049909Y-57231740D01*
X111524577Y-56914577D01*
X111760000Y-56562242D01*
X111995423Y-56914577D01*
X112470091Y-57231740D01*
X112888667Y-57315000D01*
X113171333Y-57315000D01*
X113589909Y-57231740D01*
X114064577Y-56914577D01*
X114300000Y-56562242D01*
X114535423Y-56914577D01*
X115010091Y-57231740D01*
X115428667Y-57315000D01*
X115711333Y-57315000D01*
X116129909Y-57231740D01*
X116604577Y-56914577D01*
X116840000Y-56562242D01*
X117075423Y-56914577D01*
X117550091Y-57231740D01*
X117968667Y-57315000D01*
X118251333Y-57315000D01*
X118669909Y-57231740D01*
X119144577Y-56914577D01*
X119461740Y-56439909D01*
X119573113Y-55880000D01*
X119461740Y-55320091D01*
X119144577Y-54845423D01*
X118669909Y-54528260D01*
X118251333Y-54445000D01*
X117968667Y-54445000D01*
X117550091Y-54528260D01*
X117075423Y-54845423D01*
X116840000Y-55197758D01*
X116604577Y-54845423D01*
X116129909Y-54528260D01*
X115711333Y-54445000D01*
X115428667Y-54445000D01*
X115010091Y-54528260D01*
X114535423Y-54845423D01*
X114300000Y-55197758D01*
X114064577Y-54845423D01*
X113589909Y-54528260D01*
X113171333Y-54445000D01*
X112888667Y-54445000D01*
X112470091Y-54528260D01*
X111995423Y-54845423D01*
X111760000Y-55197758D01*
X111524577Y-54845423D01*
X111049909Y-54528260D01*
X110631333Y-54445000D01*
X110348667Y-54445000D01*
X109930091Y-54528260D01*
X109455423Y-54845423D01*
X109220000Y-55197758D01*
X108984577Y-54845423D01*
X108509909Y-54528260D01*
X108091333Y-54445000D01*
X107808667Y-54445000D01*
X107390091Y-54528260D01*
X106915423Y-54845423D01*
X106680000Y-55197758D01*
X106444577Y-54845423D01*
X105969909Y-54528260D01*
X105551333Y-54445000D01*
X105268667Y-54445000D01*
X104850091Y-54528260D01*
X104375423Y-54845423D01*
X104140000Y-55197758D01*
X103904577Y-54845423D01*
X103429909Y-54528260D01*
X103011333Y-54445000D01*
X102728667Y-54445000D01*
X102310091Y-54528260D01*
X101835423Y-54845423D01*
X101600000Y-55197758D01*
X101364577Y-54845423D01*
X101090000Y-54661957D01*
X101090000Y-54075440D01*
X101180000Y-54075440D01*
X101427765Y-54026157D01*
X101637809Y-53885809D01*
X101778157Y-53675765D01*
X101827440Y-53428000D01*
X101827440Y-52863750D01*
X109005000Y-52863750D01*
X109005000Y-53554309D01*
X109101673Y-53787698D01*
X109280301Y-53966327D01*
X109513690Y-54063000D01*
X110204250Y-54063000D01*
X110363000Y-53904250D01*
X110363000Y-52705000D01*
X109163750Y-52705000D01*
X109005000Y-52863750D01*
X101827440Y-52863750D01*
X101827440Y-51728000D01*
X101784078Y-51510000D01*
X109042980Y-51510000D01*
X109005000Y-51601691D01*
X109005000Y-52292250D01*
X109163750Y-52451000D01*
X110363000Y-52451000D01*
X110363000Y-52431000D01*
X110617000Y-52431000D01*
X110617000Y-52451000D01*
X110637000Y-52451000D01*
X110637000Y-52705000D01*
X110617000Y-52705000D01*
X110617000Y-53904250D01*
X110775750Y-54063000D01*
X111466310Y-54063000D01*
X111699699Y-53966327D01*
X111878327Y-53787698D01*
X111944904Y-53626967D01*
X111959375Y-53648625D01*
X112450582Y-53976839D01*
X112883744Y-54063000D01*
X113176256Y-54063000D01*
X113609418Y-53976839D01*
X114100625Y-53648625D01*
X114300000Y-53350239D01*
X114499375Y-53648625D01*
X114990582Y-53976839D01*
X115423744Y-54063000D01*
X115716256Y-54063000D01*
X116149418Y-53976839D01*
X116640625Y-53648625D01*
X116968839Y-53157418D01*
X117084092Y-52578000D01*
X116968839Y-51998582D01*
X116642379Y-51510000D01*
X126290000Y-51510000D01*
X126290001Y-75490000D01*
X121722379Y-75490000D01*
X122048839Y-75001418D01*
X122164092Y-74422000D01*
X122048839Y-73842582D01*
X121720625Y-73351375D01*
X121229418Y-73023161D01*
X120796256Y-72937000D01*
X120503744Y-72937000D01*
X120070582Y-73023161D01*
X119579375Y-73351375D01*
X119380000Y-73649761D01*
X119180625Y-73351375D01*
X118870000Y-73143822D01*
X118870000Y-72338043D01*
X119144577Y-72154577D01*
X119461740Y-71679909D01*
X119573113Y-71120000D01*
X119461740Y-70560091D01*
X119144577Y-70085423D01*
X118669909Y-69768260D01*
X118251333Y-69685000D01*
X117968667Y-69685000D01*
X117550091Y-69768260D01*
X117075423Y-70085423D01*
X116840000Y-70437758D01*
X116604577Y-70085423D01*
X116129909Y-69768260D01*
X115711333Y-69685000D01*
X115428667Y-69685000D01*
X115010091Y-69768260D01*
X114535423Y-70085423D01*
X114300000Y-70437758D01*
X114064577Y-70085423D01*
X113589909Y-69768260D01*
X113171333Y-69685000D01*
X112888667Y-69685000D01*
X112470091Y-69768260D01*
X111995423Y-70085423D01*
X111760000Y-70437758D01*
X111524577Y-70085423D01*
X111049909Y-69768260D01*
X110631333Y-69685000D01*
X110348667Y-69685000D01*
X109930091Y-69768260D01*
X109455423Y-70085423D01*
X109220000Y-70437758D01*
X108984577Y-70085423D01*
X108509909Y-69768260D01*
X108091333Y-69685000D01*
X107808667Y-69685000D01*
X107390091Y-69768260D01*
X106915423Y-70085423D01*
X106680000Y-70437758D01*
X106444577Y-70085423D01*
X106170000Y-69901957D01*
X106170000Y-66182647D01*
X106533744Y-66255000D01*
X106826256Y-66255000D01*
X107259418Y-66168839D01*
X107750625Y-65840625D01*
X107950000Y-65542239D01*
X108149375Y-65840625D01*
X108640582Y-66168839D01*
X109073744Y-66255000D01*
X109366256Y-66255000D01*
X109799418Y-66168839D01*
X110290625Y-65840625D01*
X110503843Y-65521522D01*
X110564817Y-65651358D01*
X110993076Y-66041645D01*
X111403110Y-66211476D01*
X111633000Y-66090155D01*
X111633000Y-64897000D01*
X111887000Y-64897000D01*
X111887000Y-66090155D01*
X112116890Y-66211476D01*
X112526924Y-66041645D01*
X112955183Y-65651358D01*
X113201486Y-65126892D01*
X113080819Y-64897000D01*
X111887000Y-64897000D01*
X111633000Y-64897000D01*
X111613000Y-64897000D01*
X111613000Y-64643000D01*
X111633000Y-64643000D01*
X111633000Y-64623000D01*
X111887000Y-64623000D01*
X111887000Y-64643000D01*
X113080819Y-64643000D01*
X113201486Y-64413108D01*
X112955183Y-63888642D01*
X112530214Y-63501353D01*
X112830625Y-63300625D01*
X113158839Y-62809418D01*
X113274092Y-62230000D01*
X113158839Y-61650582D01*
X112830625Y-61159375D01*
X112339418Y-60831161D01*
X111906256Y-60745000D01*
X111613744Y-60745000D01*
X111180582Y-60831161D01*
X110689375Y-61159375D01*
X110490000Y-61457761D01*
X110290625Y-61159375D01*
X109799418Y-60831161D01*
X109366256Y-60745000D01*
X109073744Y-60745000D01*
X108640582Y-60831161D01*
X108149375Y-61159375D01*
X107950000Y-61457761D01*
X107750625Y-61159375D01*
X107259418Y-60831161D01*
X106826256Y-60745000D01*
X106533744Y-60745000D01*
X106100582Y-60831161D01*
X105609375Y-61159375D01*
X105410000Y-61457761D01*
X105210625Y-61159375D01*
X104719418Y-60831161D01*
X104286256Y-60745000D01*
X103993744Y-60745000D01*
X103560582Y-60831161D01*
X103069375Y-61159375D01*
X102870000Y-61457761D01*
X102670625Y-61159375D01*
X102179418Y-60831161D01*
X101746256Y-60745000D01*
X101453744Y-60745000D01*
X101020582Y-60831161D01*
X100529375Y-61159375D01*
X100316157Y-61478478D01*
X100255183Y-61348642D01*
X99826924Y-60958355D01*
X99416890Y-60788524D01*
X99187000Y-60909845D01*
X99187000Y-62103000D01*
X99207000Y-62103000D01*
X99207000Y-62357000D01*
X99187000Y-62357000D01*
X99187000Y-62377000D01*
X98933000Y-62377000D01*
X98933000Y-62357000D01*
X98913000Y-62357000D01*
X98913000Y-62103000D01*
X98933000Y-62103000D01*
X98933000Y-60909845D01*
X98703110Y-60788524D01*
X98293076Y-60958355D01*
X97864817Y-61348642D01*
X97803843Y-61478478D01*
X97590625Y-61159375D01*
X97099418Y-60831161D01*
X96666256Y-60745000D01*
X96373744Y-60745000D01*
X95940582Y-60831161D01*
X95449375Y-61159375D01*
X95250000Y-61457761D01*
X95050625Y-61159375D01*
X94559418Y-60831161D01*
X94126256Y-60745000D01*
X93833744Y-60745000D01*
X93400582Y-60831161D01*
X92909375Y-61159375D01*
X92710000Y-61457761D01*
X92510625Y-61159375D01*
X92019418Y-60831161D01*
X91586256Y-60745000D01*
X91293744Y-60745000D01*
X90860582Y-60831161D01*
X90369375Y-61159375D01*
X90170000Y-61457761D01*
X89970625Y-61159375D01*
X89479418Y-60831161D01*
X89046256Y-60745000D01*
X88753744Y-60745000D01*
X88320582Y-60831161D01*
X87829375Y-61159375D01*
X87501161Y-61650582D01*
X87385908Y-62230000D01*
X87501161Y-62809418D01*
X87829375Y-63300625D01*
X87847619Y-63312816D01*
X87802235Y-63321843D01*
X87592191Y-63462191D01*
X87451843Y-63672235D01*
X87402560Y-63920000D01*
X87402560Y-65620000D01*
X87451843Y-65867765D01*
X87592191Y-66077809D01*
X87802235Y-66218157D01*
X88050000Y-66267440D01*
X89750000Y-66267440D01*
X89997765Y-66218157D01*
X90207809Y-66077809D01*
X90348157Y-65867765D01*
X90357184Y-65822381D01*
X90369375Y-65840625D01*
X90860582Y-66168839D01*
X91293744Y-66255000D01*
X91586256Y-66255000D01*
X92019418Y-66168839D01*
X92510625Y-65840625D01*
X92710000Y-65542239D01*
X92909375Y-65840625D01*
X93220000Y-66048178D01*
X93220001Y-69535197D01*
X93033886Y-69721312D01*
X92851333Y-69685000D01*
X92568667Y-69685000D01*
X92150091Y-69768260D01*
X91675423Y-70085423D01*
X91419053Y-70469108D01*
X91322389Y-70264866D01*
X90907423Y-69888959D01*
X90519039Y-69728096D01*
X90297000Y-69850085D01*
X90297000Y-70993000D01*
X90317000Y-70993000D01*
X90317000Y-71247000D01*
X90297000Y-71247000D01*
X90297000Y-72389915D01*
X90519039Y-72511904D01*
X90907423Y-72351041D01*
X91322389Y-71975134D01*
X91419053Y-71770892D01*
X91675423Y-72154577D01*
X92150091Y-72471740D01*
X92568667Y-72555000D01*
X92851333Y-72555000D01*
X93269909Y-72471740D01*
X93744577Y-72154577D01*
X93980000Y-71802242D01*
X94215423Y-72154577D01*
X94690091Y-72471740D01*
X95108667Y-72555000D01*
X95391333Y-72555000D01*
X95809909Y-72471740D01*
X96284577Y-72154577D01*
X96520000Y-71802242D01*
X96755423Y-72154577D01*
X97230091Y-72471740D01*
X97648667Y-72555000D01*
X97931333Y-72555000D01*
X98349909Y-72471740D01*
X98824577Y-72154577D01*
X99060000Y-71802242D01*
X99295423Y-72154577D01*
X99770091Y-72471740D01*
X100188667Y-72555000D01*
X100471333Y-72555000D01*
X100889909Y-72471740D01*
X101364577Y-72154577D01*
X101600000Y-71802242D01*
X101835423Y-72154577D01*
X102310091Y-72471740D01*
X102728667Y-72555000D01*
X103011333Y-72555000D01*
X103429909Y-72471740D01*
X103904577Y-72154577D01*
X104140000Y-71802242D01*
X104375423Y-72154577D01*
X104850091Y-72471740D01*
X105268667Y-72555000D01*
X105551333Y-72555000D01*
X105969909Y-72471740D01*
X106444577Y-72154577D01*
X106680000Y-71802242D01*
X106915423Y-72154577D01*
X107190000Y-72338044D01*
X107190000Y-72924560D01*
X107100000Y-72924560D01*
X106852235Y-72973843D01*
X106642191Y-73114191D01*
X106501843Y-73324235D01*
X106452560Y-73572000D01*
X106452560Y-75272000D01*
X106495922Y-75490000D01*
X88520687Y-75490000D01*
X88804147Y-75206540D01*
X89015000Y-74697494D01*
X89015000Y-74146506D01*
X88804147Y-73637460D01*
X88414540Y-73247853D01*
X88390000Y-73237688D01*
X88390000Y-72338043D01*
X88664577Y-72154577D01*
X88920947Y-71770892D01*
X89017611Y-71975134D01*
X89432577Y-72351041D01*
X89820961Y-72511904D01*
X90043000Y-72389915D01*
X90043000Y-71247000D01*
X90023000Y-71247000D01*
X90023000Y-70993000D01*
X90043000Y-70993000D01*
X90043000Y-69850085D01*
X89820961Y-69728096D01*
X89432577Y-69888959D01*
X89017611Y-70264866D01*
X88920947Y-70469108D01*
X88664577Y-70085423D01*
X88189909Y-69768260D01*
X87771333Y-69685000D01*
X87488667Y-69685000D01*
X87070091Y-69768260D01*
X86595423Y-70085423D01*
X86360000Y-70437758D01*
X86124577Y-70085423D01*
X85649909Y-69768260D01*
X85231333Y-69685000D01*
X84948667Y-69685000D01*
X84530091Y-69768260D01*
X84055423Y-70085423D01*
X83974785Y-70206106D01*
X83948157Y-70072235D01*
X83807809Y-69862191D01*
X83597765Y-69721843D01*
X83350000Y-69672560D01*
X81750000Y-69672560D01*
X81502235Y-69721843D01*
X81292191Y-69862191D01*
X81151843Y-70072235D01*
X81102560Y-70320000D01*
X81102560Y-71920000D01*
X81151843Y-72167765D01*
X81292191Y-72377809D01*
X81502235Y-72518157D01*
X81750000Y-72567440D01*
X83350000Y-72567440D01*
X83597765Y-72518157D01*
X83807809Y-72377809D01*
X83948157Y-72167765D01*
X83974785Y-72033894D01*
X84055423Y-72154577D01*
X84530091Y-72471740D01*
X84948667Y-72555000D01*
X85231333Y-72555000D01*
X85649909Y-72471740D01*
X86124577Y-72154577D01*
X86360000Y-71802242D01*
X86595423Y-72154577D01*
X86870000Y-72338044D01*
X86870001Y-73237688D01*
X86845460Y-73247853D01*
X86455853Y-73637460D01*
X86245000Y-74146506D01*
X86245000Y-74697494D01*
X86455853Y-75206540D01*
X86739313Y-75490000D01*
X76910000Y-75490000D01*
X76910000Y-55880000D01*
X81086887Y-55880000D01*
X81198260Y-56439909D01*
X81515423Y-56914577D01*
X81990091Y-57231740D01*
X82408667Y-57315000D01*
X82691333Y-57315000D01*
X83109909Y-57231740D01*
X83584577Y-56914577D01*
X83840947Y-56530892D01*
X83937611Y-56735134D01*
X84352577Y-57111041D01*
X84740961Y-57271904D01*
X84963000Y-57149915D01*
X84963000Y-56007000D01*
X84943000Y-56007000D01*
X84943000Y-55753000D01*
X84963000Y-55753000D01*
X84963000Y-54610085D01*
X84740961Y-54488096D01*
X84352577Y-54648959D01*
X83937611Y-55024866D01*
X83840947Y-55229108D01*
X83584577Y-54845423D01*
X83109909Y-54528260D01*
X82691333Y-54445000D01*
X82408667Y-54445000D01*
X81990091Y-54528260D01*
X81515423Y-54845423D01*
X81198260Y-55320091D01*
X81086887Y-55880000D01*
X76910000Y-55880000D01*
X76910000Y-51510000D01*
X91637621Y-51510000D01*
X91311161Y-51998582D01*
G04 #@! TD*
M02*
