G04 #@! TF.GenerationSoftware,KiCad,Pcbnew,(5.0.2)-1*
G04 #@! TF.CreationDate,2019-02-02T18:03:16-06:00*
G04 #@! TF.ProjectId,CE-Header-Arduino-Nano,43452d48-6561-4646-9572-2d4172647569,1.0*
G04 #@! TF.SameCoordinates,Original*
G04 #@! TF.FileFunction,Legend,Bot*
G04 #@! TF.FilePolarity,Positive*
%FSLAX46Y46*%
G04 Gerber Fmt 4.6, Leading zero omitted, Abs format (unit mm)*
G04 Created by KiCad (PCBNEW (5.0.2)-1) date 2/2/2019 6:03:16 PM*
%MOMM*%
%LPD*%
G01*
G04 APERTURE LIST*
%ADD10C,0.300000*%
G04 APERTURE END LIST*
D10*
X115207142Y-58606571D02*
X114921428Y-59606571D01*
X114635714Y-58892285D01*
X114350000Y-59606571D01*
X114064285Y-58606571D01*
X113635714Y-58606571D02*
X113350000Y-59606571D01*
X113064285Y-58892285D01*
X112778571Y-59606571D01*
X112492857Y-58606571D01*
X112064285Y-58606571D02*
X111778571Y-59606571D01*
X111492857Y-58892285D01*
X111207142Y-59606571D01*
X110921428Y-58606571D01*
X110350000Y-59463714D02*
X110278571Y-59535142D01*
X110350000Y-59606571D01*
X110421428Y-59535142D01*
X110350000Y-59463714D01*
X110350000Y-59606571D01*
X109635714Y-59606571D02*
X109635714Y-58106571D01*
X109135714Y-59178000D01*
X108635714Y-58106571D01*
X108635714Y-59606571D01*
X107278571Y-59606571D02*
X107278571Y-58820857D01*
X107350000Y-58678000D01*
X107492857Y-58606571D01*
X107778571Y-58606571D01*
X107921428Y-58678000D01*
X107278571Y-59535142D02*
X107421428Y-59606571D01*
X107778571Y-59606571D01*
X107921428Y-59535142D01*
X107992857Y-59392285D01*
X107992857Y-59249428D01*
X107921428Y-59106571D01*
X107778571Y-59035142D01*
X107421428Y-59035142D01*
X107278571Y-58963714D01*
X106564285Y-59606571D02*
X106564285Y-58606571D01*
X106564285Y-58892285D02*
X106492857Y-58749428D01*
X106421428Y-58678000D01*
X106278571Y-58606571D01*
X106135714Y-58606571D01*
X105635714Y-59606571D02*
X105635714Y-58106571D01*
X105492857Y-59035142D02*
X105064285Y-59606571D01*
X105064285Y-58606571D02*
X105635714Y-59178000D01*
X103921428Y-58820857D02*
X104421428Y-58820857D01*
X104421428Y-59606571D02*
X104421428Y-58106571D01*
X103707142Y-58106571D01*
X103135714Y-59606571D02*
X103135714Y-58606571D01*
X103135714Y-58892285D02*
X103064285Y-58749428D01*
X102992857Y-58678000D01*
X102850000Y-58606571D01*
X102707142Y-58606571D01*
X101992857Y-59606571D02*
X102135714Y-59535142D01*
X102207142Y-59463714D01*
X102278571Y-59320857D01*
X102278571Y-58892285D01*
X102207142Y-58749428D01*
X102135714Y-58678000D01*
X101992857Y-58606571D01*
X101778571Y-58606571D01*
X101635714Y-58678000D01*
X101564285Y-58749428D01*
X101492857Y-58892285D01*
X101492857Y-59320857D01*
X101564285Y-59463714D01*
X101635714Y-59535142D01*
X101778571Y-59606571D01*
X101992857Y-59606571D01*
X100850000Y-59606571D02*
X100850000Y-58606571D01*
X100850000Y-58749428D02*
X100778571Y-58678000D01*
X100635714Y-58606571D01*
X100421428Y-58606571D01*
X100278571Y-58678000D01*
X100207142Y-58820857D01*
X100207142Y-59606571D01*
X100207142Y-58820857D02*
X100135714Y-58678000D01*
X99992857Y-58606571D01*
X99778571Y-58606571D01*
X99635714Y-58678000D01*
X99564285Y-58820857D01*
X99564285Y-59606571D01*
X98921428Y-59535142D02*
X98707142Y-59606571D01*
X98350000Y-59606571D01*
X98207142Y-59535142D01*
X98135714Y-59463714D01*
X98064285Y-59320857D01*
X98064285Y-59178000D01*
X98135714Y-59035142D01*
X98207142Y-58963714D01*
X98350000Y-58892285D01*
X98635714Y-58820857D01*
X98778571Y-58749428D01*
X98850000Y-58678000D01*
X98921428Y-58535142D01*
X98921428Y-58392285D01*
X98850000Y-58249428D01*
X98778571Y-58178000D01*
X98635714Y-58106571D01*
X98278571Y-58106571D01*
X98064285Y-58178000D01*
X96778571Y-59606571D02*
X96778571Y-58820857D01*
X96850000Y-58678000D01*
X96992857Y-58606571D01*
X97278571Y-58606571D01*
X97421428Y-58678000D01*
X96778571Y-59535142D02*
X96921428Y-59606571D01*
X97278571Y-59606571D01*
X97421428Y-59535142D01*
X97492857Y-59392285D01*
X97492857Y-59249428D01*
X97421428Y-59106571D01*
X97278571Y-59035142D01*
X96921428Y-59035142D01*
X96778571Y-58963714D01*
X95850000Y-59606571D02*
X95992857Y-59535142D01*
X96064285Y-59392285D01*
X96064285Y-58106571D01*
X94707142Y-59535142D02*
X94850000Y-59606571D01*
X95135714Y-59606571D01*
X95278571Y-59535142D01*
X95350000Y-59392285D01*
X95350000Y-58820857D01*
X95278571Y-58678000D01*
X95135714Y-58606571D01*
X94850000Y-58606571D01*
X94707142Y-58678000D01*
X94635714Y-58820857D01*
X94635714Y-58963714D01*
X95350000Y-59106571D01*
X94064285Y-59535142D02*
X93921428Y-59606571D01*
X93635714Y-59606571D01*
X93492857Y-59535142D01*
X93421428Y-59392285D01*
X93421428Y-59320857D01*
X93492857Y-59178000D01*
X93635714Y-59106571D01*
X93850000Y-59106571D01*
X93992857Y-59035142D01*
X94064285Y-58892285D01*
X94064285Y-58820857D01*
X93992857Y-58678000D01*
X93850000Y-58606571D01*
X93635714Y-58606571D01*
X93492857Y-58678000D01*
X92778571Y-59463714D02*
X92707142Y-59535142D01*
X92778571Y-59606571D01*
X92850000Y-59535142D01*
X92778571Y-59463714D01*
X92778571Y-59606571D01*
X91421428Y-59535142D02*
X91564285Y-59606571D01*
X91850000Y-59606571D01*
X91992857Y-59535142D01*
X92064285Y-59463714D01*
X92135714Y-59320857D01*
X92135714Y-58892285D01*
X92064285Y-58749428D01*
X91992857Y-58678000D01*
X91850000Y-58606571D01*
X91564285Y-58606571D01*
X91421428Y-58678000D01*
X90564285Y-59606571D02*
X90707142Y-59535142D01*
X90778571Y-59463714D01*
X90850000Y-59320857D01*
X90850000Y-58892285D01*
X90778571Y-58749428D01*
X90707142Y-58678000D01*
X90564285Y-58606571D01*
X90350000Y-58606571D01*
X90207142Y-58678000D01*
X90135714Y-58749428D01*
X90064285Y-58892285D01*
X90064285Y-59320857D01*
X90135714Y-59463714D01*
X90207142Y-59535142D01*
X90350000Y-59606571D01*
X90564285Y-59606571D01*
X89421428Y-59606571D02*
X89421428Y-58606571D01*
X89421428Y-58749428D02*
X89350000Y-58678000D01*
X89207142Y-58606571D01*
X88992857Y-58606571D01*
X88850000Y-58678000D01*
X88778571Y-58820857D01*
X88778571Y-59606571D01*
X88778571Y-58820857D02*
X88707142Y-58678000D01*
X88564285Y-58606571D01*
X88350000Y-58606571D01*
X88207142Y-58678000D01*
X88135714Y-58820857D01*
X88135714Y-59606571D01*
X124995714Y-53928571D02*
X125067142Y-53857142D01*
X125138571Y-53642857D01*
X125138571Y-53500000D01*
X125067142Y-53285714D01*
X124924285Y-53142857D01*
X124781428Y-53071428D01*
X124495714Y-53000000D01*
X124281428Y-53000000D01*
X123995714Y-53071428D01*
X123852857Y-53142857D01*
X123710000Y-53285714D01*
X123638571Y-53500000D01*
X123638571Y-53642857D01*
X123710000Y-53857142D01*
X123781428Y-53928571D01*
X124352857Y-54571428D02*
X124352857Y-55071428D01*
X125138571Y-55285714D02*
X125138571Y-54571428D01*
X123638571Y-54571428D01*
X123638571Y-55285714D01*
X125138571Y-57071428D02*
X123638571Y-57071428D01*
X124352857Y-57071428D02*
X124352857Y-57928571D01*
X125138571Y-57928571D02*
X123638571Y-57928571D01*
X125067142Y-59214285D02*
X125138571Y-59071428D01*
X125138571Y-58785714D01*
X125067142Y-58642857D01*
X124924285Y-58571428D01*
X124352857Y-58571428D01*
X124210000Y-58642857D01*
X124138571Y-58785714D01*
X124138571Y-59071428D01*
X124210000Y-59214285D01*
X124352857Y-59285714D01*
X124495714Y-59285714D01*
X124638571Y-58571428D01*
X125138571Y-60571428D02*
X124352857Y-60571428D01*
X124210000Y-60500000D01*
X124138571Y-60357142D01*
X124138571Y-60071428D01*
X124210000Y-59928571D01*
X125067142Y-60571428D02*
X125138571Y-60428571D01*
X125138571Y-60071428D01*
X125067142Y-59928571D01*
X124924285Y-59857142D01*
X124781428Y-59857142D01*
X124638571Y-59928571D01*
X124567142Y-60071428D01*
X124567142Y-60428571D01*
X124495714Y-60571428D01*
X125138571Y-61928571D02*
X123638571Y-61928571D01*
X125067142Y-61928571D02*
X125138571Y-61785714D01*
X125138571Y-61500000D01*
X125067142Y-61357142D01*
X124995714Y-61285714D01*
X124852857Y-61214285D01*
X124424285Y-61214285D01*
X124281428Y-61285714D01*
X124210000Y-61357142D01*
X124138571Y-61500000D01*
X124138571Y-61785714D01*
X124210000Y-61928571D01*
X125067142Y-63214285D02*
X125138571Y-63071428D01*
X125138571Y-62785714D01*
X125067142Y-62642857D01*
X124924285Y-62571428D01*
X124352857Y-62571428D01*
X124210000Y-62642857D01*
X124138571Y-62785714D01*
X124138571Y-63071428D01*
X124210000Y-63214285D01*
X124352857Y-63285714D01*
X124495714Y-63285714D01*
X124638571Y-62571428D01*
X125138571Y-63928571D02*
X124138571Y-63928571D01*
X124424285Y-63928571D02*
X124281428Y-64000000D01*
X124210000Y-64071428D01*
X124138571Y-64214285D01*
X124138571Y-64357142D01*
X124567142Y-65999999D02*
X124567142Y-67142857D01*
X125138571Y-68999999D02*
X123638571Y-68999999D01*
X125138571Y-69857142D01*
X123638571Y-69857142D01*
X125138571Y-71214285D02*
X124352857Y-71214285D01*
X124210000Y-71142857D01*
X124138571Y-70999999D01*
X124138571Y-70714285D01*
X124210000Y-70571428D01*
X125067142Y-71214285D02*
X125138571Y-71071428D01*
X125138571Y-70714285D01*
X125067142Y-70571428D01*
X124924285Y-70499999D01*
X124781428Y-70499999D01*
X124638571Y-70571428D01*
X124567142Y-70714285D01*
X124567142Y-71071428D01*
X124495714Y-71214285D01*
X124138571Y-71928571D02*
X125138571Y-71928571D01*
X124281428Y-71928571D02*
X124210000Y-71999999D01*
X124138571Y-72142857D01*
X124138571Y-72357142D01*
X124210000Y-72499999D01*
X124352857Y-72571428D01*
X125138571Y-72571428D01*
X125138571Y-73499999D02*
X125067142Y-73357142D01*
X124995714Y-73285714D01*
X124852857Y-73214285D01*
X124424285Y-73214285D01*
X124281428Y-73285714D01*
X124210000Y-73357142D01*
X124138571Y-73499999D01*
X124138571Y-73714285D01*
X124210000Y-73857142D01*
X124281428Y-73928571D01*
X124424285Y-73999999D01*
X124852857Y-73999999D01*
X124995714Y-73928571D01*
X125067142Y-73857142D01*
X125138571Y-73714285D01*
X125138571Y-73499999D01*
M02*
